<svg xmlns="http://www.w3.org/2000/svg" xmlns:xlink="http://www.w3.org/1999/xlink" version="1.1" x="0px" y="0px" viewBox="0 0 139 173.75" enable-background="new 0 0 139 139" xml:space="preserve"><path d="M69.499,11.666c-31.94,0-57.833,25.894-57.833,57.833c0,31.939,25.893,57.836,57.833,57.836s57.835-25.896,57.835-57.836  C127.334,37.559,101.439,11.666,69.499,11.666z M27.37,91.284c0-18.067,15.867-18.063,19.388-22.787l0.403-2.154  c-4.947-2.508-8.439-8.551-8.439-15.621c0-9.313,6.058-16.864,13.529-16.864c5.883,0,10.875,4.69,12.738,11.227  c-7.484,2.378-13.02,10.493-13.02,20.139c0,6.641,2.618,12.747,6.916,16.626c-0.69,0.354-1.458,0.715-2.118,1.024  c-3.466,1.626-8.27,3.886-11.736,8.41H27.37z M69.675,105.784h-0.353H44.618c0-18.066,15.867-18.061,19.388-22.785l0.403-2.154  c-4.947-2.508-8.439-8.551-8.439-15.621c0-9.313,6.058-16.864,13.529-16.864s13.529,7.551,13.529,16.864  c0,7.009-3.43,13.016-8.311,15.562l0.459,2.449c3.863,4.495,19.202,4.788,19.202,22.55H69.675z M93.965,91.284  c-3.467-4.523-8.271-6.783-11.737-8.409c-0.682-0.32-1.438-0.675-2.114-1.022c4.294-3.884,6.915-10.003,6.915-16.629  c0-9.645-5.534-17.758-13.016-20.137c1.862-6.538,6.854-11.228,12.738-11.228c7.472,0,13.529,7.551,13.529,16.864  c0,7.009-3.43,13.015-8.311,15.562l0.459,2.449c3.863,4.494,19.202,4.787,19.202,22.551H93.965z"/><text x="0" y="154" fill="#000000" font-size="5px" font-weight="bold" font-family="'Helvetica Neue', Helvetica, Arial-Unicode, Arial, Sans-serif">Created by Chanut is Industries</text><text x="0" y="159" fill="#000000" font-size="5px" font-weight="bold" font-family="'Helvetica Neue', Helvetica, Arial-Unicode, Arial, Sans-serif">from the Noun Project</text></svg>