<?xml version="1.0" encoding="UTF-8" standalone="no"?>
<!-- Created with Inkscape (http://www.inkscape.org/) -->

<svg
   xmlns:dc="http://purl.org/dc/elements/1.1/"
   xmlns:cc="http://creativecommons.org/ns#"
   xmlns:rdf="http://www.w3.org/1999/02/22-rdf-syntax-ns#"
   xmlns:svg="http://www.w3.org/2000/svg"
   xmlns="http://www.w3.org/2000/svg"
   xmlns:sodipodi="http://sodipodi.sourceforge.net/DTD/sodipodi-0.dtd"
   xmlns:inkscape="http://www.inkscape.org/namespaces/inkscape"
   width="64mm"
   height="35mm"
   viewBox="0 0 226.77152 124.01568"
   id="svg3404"
   version="1.1"
   inkscape:version="0.91 r13725"
   sodipodi:docname="mi-logo-imgs-group.svg">
  <defs
     id="defs3406" />
  <sodipodi:namedview
     id="base"
     pagecolor="#ffffff"
     bordercolor="#666666"
     borderopacity="1.0"
     inkscape:pageopacity="0.0"
     inkscape:pageshadow="2"
     inkscape:zoom="0.35"
     inkscape:cx="375"
     inkscape:cy="520"
     inkscape:document-units="px"
     inkscape:current-layer="layer1"
     showgrid="false"
     showguides="true"
     inkscape:window-width="1301"
     inkscape:window-height="744"
     inkscape:window-x="65"
     inkscape:window-y="24"
     inkscape:window-maximized="1" />
  <metadata
     id="metadata3409">
    <rdf:RDF>
      <cc:Work
         rdf:about="">
        <dc:format>image/svg+xml</dc:format>
        <dc:type
           rdf:resource="http://purl.org/dc/dcmitype/StillImage" />
        <dc:title></dc:title>
      </cc:Work>
    </rdf:RDF>
  </metadata>
  <g
     inkscape:label="Layer 1"
     inkscape:groupmode="layer"
     id="layer1"
     transform="translate(0,-928.34606)">
    <g
       transform="translate(-7.1426815,942.36206)"
       id="g3650">
      <path
         inkscape:connector-curvature="0"
         d="m 63.334,13.666 c 0,4.791 -3.877,8.667 -8.667,8.667 C 49.876,22.333 46,18.457 46,13.666 46,8.876 49.876,5 54.667,5 c 4.79,0 8.667,3.876 8.667,8.666 l 0,0 z m 0,0"
         id="path3652" />
      <path
         inkscape:connector-curvature="0"
         d="m 74.896,50.67 c -1.693,-0.762 -12.865,-6.314 -12.865,-6.314 0,0 -3.961,-8.446 -6.01,-13.067 -1.929,-4.351 -3.317,-5.484 -6.06,-5.484 l -4.232,0 c -2.217,0 -3.029,0.812 -4.384,1.574 l -11.442,9.733 c -1,0.575 -1.643,1.438 -2.031,2.657 l -2.455,16.47 c -0.355,2.625 1.033,3.742 2.607,4.063 1.27,0.271 3.182,-0.372 3.571,-2.218 0.305,-1.523 2.623,-14.998 2.623,-14.998 l 7.466,-5.738 c -1.235,5.722 -2.488,11.984 -2.895,14.118 -0.711,3.64 1.1,6.398 2.539,8.564 1.303,1.964 18.197,28.592 20.415,31.485 2.233,2.896 4.266,4.334 7.363,2.607 2.606,-1.456 2.166,-4.773 0.728,-7.229 C 68.396,84.437 51.35,56.713 51.35,56.713 l 2.86,-12.357 c 0,0 1.98,2.827 2.996,4.418 0.49,0.746 0.999,1.05 2.336,1.777 1.574,0.864 9.209,4.334 11.527,5.384 2.065,0.914 4.621,1.27 5.638,-0.559 1.032,-1.812 -0.27,-3.995 -1.811,-4.706 l 0,0 z m 0,0"
         id="path3654" />
      <path
         inkscape:connector-curvature="0"
         d="m 37.181,61.876 -3.453,12.171 c 0,0 -7.211,10.428 -9.209,13.339 -1.506,2.2 -2.641,4.875 -0.067,6.822 2.895,2.183 5.214,-0.661 6.703,-2.354 1.371,-1.54 6.957,-9.344 8.531,-11.325 1.05,-1.337 1.625,-2.453 2.083,-3.571 0.287,-0.744 1.422,-3.825 2.149,-5.823 l -6.737,-9.259 z m 0,0"
         id="path3656" />
    </g>
    <path
       inkscape:connector-curvature="0"
       d="m 129.16057,978.19415 c 5.914,-0.358 16.268,-4.932 16.268,-14.975 0,-7.897 -4.71,-13 -12,-13 -5.021,0 -9.458,4.568 -9.95,10 l -24.100003,0 c -0.492,-5.432 -4.928999,-10 -9.949999,-10 -7.29,0 -12,5.103 -12,13 0,10.043 10.354,14.617 16.268,14.975 0.319,1.909 0.929,3.718 1.801,5.375 0.009,0.024 0.021,0.045 0.033,0.069 2.575999,4.846 7.303002,8.366 12.898002,9.311 l 0,11.26995 c 0,2.43 -1.57,4 -4,4 -2.232,0 -4.357,1.834 -4.877003,4 l -3.122999,0 c -0.553,0 -1,0.447 -1,1 l 0,20 -2,0 c -0.553,0 -1,0.447 -1,1 l 0,5 c 0,0.553 0.447,1 1,1 l 36.000002,0 c 0.553,0 1,-0.447 1,-1 l 0,-5 c 0,-0.553 -0.447,-1 -1,-1 l -2,0 0,-20 c 0,-0.553 -0.447,-1 -1,-1 l -3.123,0 c -0.52,-2.166 -2.645,-4 -4.877,-4 -2.43,0 -4,-1.57 -4,-4 l 0,-11.27095 c 7.529,-1.271 13.472,-7.221 14.732,-14.754 z m -15.08,12.786 2.055,-2.054 c 0.391,-0.391 0.391,-1.023 0,-1.414 -0.391,-0.391 -1.023,-0.391 -1.414,0 l -3.688,3.687 c -0.975,-0.024 -1.933,-0.122 -2.857,-0.314 l 2.959,-2.959 c 0.391,-0.391 0.391,-1.023 0,-1.414 -0.391,-0.391 -1.023,-0.391 -1.414,0 l -3.734,3.734 c -0.758,-0.275 -1.498,-0.59 -2.198,-0.973 l 3.347,-3.347 c 0.391,-0.391 0.391,-1.023 0,-1.414 -0.391,-0.391 -1.023,-0.391 -1.414,0 l -3.654,3.655 c -0.609,-0.442 -1.189,-0.921 -1.73,-1.442 l 3.799,-3.798 c 0.391,-0.391 0.391,-1.023 0,-1.414 -0.391,-0.391 -1.023,-0.391 -1.414,0 l -3.739003,3.739 c -0.478,-0.591 -0.904,-1.222 -1.295,-1.877 l 3.448003,-3.448 c 0.391,-0.391 0.391,-1.023 0,-1.414 -0.391,-0.391 -1.023,-0.391 -1.414003,0 l -2.999999,3 c -0.335,-0.782 -0.596,-1.601 -0.805,-2.44 0.076,-0.043 0.154,-0.081 0.219,-0.145 l 5.000002,-5 c 0.391,-0.391 0.391,-1.023 0,-1.414 -0.391,-0.391 -1.023,-0.391 -1.414003,0 l -4.216999,4.216 c -0.049,-0.499 -0.078,-1.001 -0.078,-1.511 l 0,-1.586 5.707002,-5.707 c 0.391,-0.391 0.391,-1.023 0,-1.414 -0.391,-0.391 -1.023,-0.391 -1.414003,0 l -4.292999,4.293 0,-3.172 5.414002,-5.414 26.586,0 0,13 c 0,7.917 -5.786,14.491 -13.348,15.761 z m -16.066003,-28.761 -2.585999,2.586 0,-2.586 2.585999,0 z m -4.585999,9.949 c -5.106,-0.506 -10,-4.764 -10,-8.949 0,-4.252 2.355,-7 6,-7 1.434,0 4,2.52 4,5 l 0,10.949 z m 36.000002,-10.949 c 0,-2.48 2.566,-5 4,-5 3.645,0 6,2.748 6,7 0,4.185 -4.894,8.443 -10,8.949 l 0,-10.949 z m 4,-9 c 4.834,0 10,2.89 10,11 0,9.086 -9.587,12.497 -14.048,12.946 0.017,-0.316 0.048,-0.627 0.048,-0.946 l 0,-1.051 c 6.199,-0.513 12,-5.68 12,-10.949 0,-5.299 -3.29,-9 -8,-9 -2.321,0 -5.348,2.837 -5.902,6 l -2.029,0 c 0.478,-3.96 3.708,-8 7.931,-8 z m -54.000002,11 c 0,-8.11 5.166,-11 10,-11 4.223,0 7.453,4.04 7.931999,8 l -2.028999,0 c -0.555,-3.163 -3.582,-6 -5.903,-6 -4.71,0 -8,3.701 -8,9 0,5.269 5.801,10.436 12,10.949 l 0,1.051 c 0,0.319 0.031,0.63 0.048,0.946 -4.461,-0.449 -14.048,-3.86 -14.048,-12.946 z m 49.000002,74.99995 -34.000002,0 0,-3 2,0 30.000002,0 2,0 0,3 z m -3,-5 -28.000003,0 0,-19 28.000003,0 0,19 z m -7,-23 c 1.122,0 2.286,0.914 2.767,2 l -19.534,0 c 0.48,-1.086 1.645,-2 2.767,-2 3.532,0 6,-2.467 6,-6 l 0,-11.05095 c 0.333,0.019 0.662,0.051 1,0.051 0.338,0 0.667,-0.032 1,-0.051 l 0,11.05095 c 0,3.533 2.468,6 6,6 z"
       id="path3737" />
    <path
       inkscape:connector-curvature="0"
       d="m 197.51428,1037.162 0,-23.6 4.7,0 c 2.8,0 5,-2.2 5,-5 l 0,-32.99999 c 0,-2.8 -2.2,-5 -5,-5 l -4.7,0 0,-23 -23.6,0 0,23 -4.7,0 c -2.8,0 -5,2.2 -5,5 l 0,32.99999 c 0,2.8 2.2,5 5,5 l 4.7,0 0,23.6 23.6,0 z m -27.3,-27.6 c -1.1,0 -2,-0.9 -2,-2 l 0,-30.99999 c 0,-1.1 0.9,-2 2,-2 l 31,0 c 1.1,0 2,0.9 2,2 l 0,30.99999 c 0,1.1 -0.9,2 -2,2 l -31,0 z"
       id="path3808" />
  </g>
</svg>
