<?xml version="1.0" encoding="UTF-8" standalone="no"?>
<svg
   xmlns:dc="http://purl.org/dc/elements/1.1/"
   xmlns:cc="http://creativecommons.org/ns#"
   xmlns:rdf="http://www.w3.org/1999/02/22-rdf-syntax-ns#"
   xmlns:svg="http://www.w3.org/2000/svg"
   xmlns="http://www.w3.org/2000/svg"
   xmlns:sodipodi="http://sodipodi.sourceforge.net/DTD/sodipodi-0.dtd"
   xmlns:inkscape="http://www.inkscape.org/namespaces/inkscape"
   version="1.1"
   x="0px"
   y="0px"
   viewBox="0 0 512 640"
   enable-background="new 0 0 512 512"
   xml:space="preserve"
   id="svg3635"
   inkscape:version="0.91 r13725"
   sodipodi:docname="noun_1138602_cc.svg"><metadata
     id="metadata3821"><rdf:RDF><cc:Work
         rdf:about=""><dc:format>image/svg+xml</dc:format><dc:type
           rdf:resource="http://purl.org/dc/dcmitype/StillImage" /></cc:Work></rdf:RDF></metadata><defs
     id="defs3819" /><sodipodi:namedview
     pagecolor="#ffffff"
     bordercolor="#666666"
     borderopacity="1"
     objecttolerance="10"
     gridtolerance="10"
     guidetolerance="10"
     inkscape:pageopacity="0"
     inkscape:pageshadow="2"
     inkscape:window-width="1301"
     inkscape:window-height="744"
     id="namedview3817"
     showgrid="false"
     inkscape:zoom="0.9484375"
     inkscape:cx="256"
     inkscape:cy="320"
     inkscape:window-x="65"
     inkscape:window-y="24"
     inkscape:window-maximized="1"
     inkscape:current-layer="svg3635" /><g
     id="g3637"><g
       id="g3639"><g
         id="g3641"><path
           d="M108.192,315.976c-2.207,0-4.038-1.789-4.038-3.999s1.75-3.998,3.959-3.998h0.078c2.21,0,3.998,1.788,3.998,3.998     S110.402,315.976,108.192,315.976z"
           id="path3643" /></g></g><g
       id="g3645"><g
         id="g3647"><g
           id="g3649"><g
             id="g3651"><path
               d="M414.906,467.894c-10.792,0-21.936-0.758-33.126-2.593c-64.987-10.651-198.711-130.967-223.704-170.496       c-1.183-1.866-0.625-4.334,1.242-5.514c1.87-1.179,4.342-0.616,5.513,1.242c24.489,38.726,155.038,156.518,218.245,166.873       c56.741,9.292,112.67-10.082,123.314-14.064c2.062-0.766,4.373,0.273,5.146,2.343c0.773,2.069-0.28,4.373-2.351,5.146       C500.307,454.157,460.801,467.894,414.906,467.894z"
               id="path3653" /></g></g></g><g
         id="g3655"><g
           id="g3657"><path
             d="M415.125,483.902c-11.667,0-23.747-0.82-35.938-2.819c-64.589-10.581-190.444-119.167-228.803-169.474      c-1.34-1.757-1.004-4.264,0.753-5.599c1.761-1.352,4.268-1,5.604,0.75c37.718,49.463,160.927,156.143,223.743,166.428      c53.938,8.848,106.094-6.068,126.008-12.894c2.093-0.702,4.365,0.398,5.075,2.491c0.719,2.085-0.397,4.365-2.483,5.076      C493.076,473.345,456.811,483.902,415.125,483.902z"
             id="path3659" /></g></g><g
         id="g3661"><g
           id="g3663"><path
             d="M153.57,313.211c-0.574,0-1.159-0.125-1.714-0.391c-1.995-0.953-2.843-3.335-1.89-5.326l7.879-16.54      c0.945-1.998,3.323-2.842,5.326-1.89c1.995,0.945,2.843,3.335,1.89,5.326l-7.879,16.54      C156.499,312.367,155.066,313.211,153.57,313.211z"
             id="path3665" /></g></g><g
         id="g3667"><g
           id="g3669"><path
             d="M163.926,289.221c-0.723,0-1.457-0.195-2.117-0.608c-1.87-1.172-2.44-3.64-1.269-5.514      c40.182-64.293,71.571-78.294,72.887-78.857c3.038-0.964,5.446-0.797,7.586,0.348c4.467,2.397,6.201,8.285,8.399,15.743      c3.65,12.385,8.652,29.351,27.976,37.191c25.56,10.387,52.431,12.097,70.368,11.675c2.21,0.18,4.045,1.695,4.092,3.904      c0.047,2.211-1.702,4.038-3.904,4.092c-18.766,0.398-46.737-1.358-73.57-12.26c-22.888-9.293-28.752-29.183-32.63-42.341      c-1.331-4.518-2.991-10.141-4.51-10.956c-0.25-0.133-0.816,0.027-1.05,0.098l0,0c0.066,0-30.264,13.841-68.865,75.604      C166.561,288.558,165.257,289.221,163.926,289.221z"
             id="path3671" /></g></g><g
         id="g3673"><g
           id="g3675"><g
             id="g3677"><path
               d="M331.872,288.94c-0.062,0-0.133,0-0.195-0.008c-22.74-1.133-43.536-5.467-61.817-12.886       c-28.237-11.456-35.363-35.625-39.623-50.061l-0.601-2.038c-0.632-2.112,0.566-4.342,2.682-4.978       c2.108-0.644,4.342,0.562,4.979,2.682l0.613,2.069c4.096,13.9,10.292,34.904,34.965,44.915       c17.438,7.083,37.359,11.223,59.193,12.308c2.21,0.109,3.904,1.991,3.795,4.193C335.761,287.276,333.988,288.94,331.872,288.94       z"
               id="path3679" /></g></g></g><g
         id="g3681"><g
           id="g3683"><path
             d="M507.796,441.147c-0.195,0-0.383-0.016-0.578-0.039c-2.179-0.32-3.693-2.343-3.389-4.529      c0.023-0.125,1.694-12.689-6.028-20.624c-3.163-3.249-15.322-6.747-27.082-10.128c-23.279-6.693-52.259-15.033-64.441-32.377      c-1.272-1.804-0.836-4.303,0.977-5.568c1.796-1.272,4.287-0.835,5.567,0.969c10.558,15.04,38.03,22.943,60.106,29.292      c14.502,4.17,25.958,7.466,30.604,12.237c10.519,10.808,8.309,26.691,8.207,27.362      C511.451,439.726,509.748,441.147,507.796,441.147z"
             id="path3685" /></g></g><g
         id="g3687"><g
           id="g3689"><path
             d="M507.788,468.081c-2.21,0-3.998-1.788-3.998-3.998V447.09c0-2.21,1.788-3.998,3.998-3.998s3.998,1.788,3.998,3.998      v16.993C511.786,466.293,509.998,468.081,507.788,468.081z"
             id="path3691" /></g></g><g
         id="g3693"><g
           id="g3695"><path
             d="M409.549,375.152c-1.101,0-2.193-0.453-2.982-1.343c-46.012-51.618-54.359-117.329-54.688-120.101      c-0.266-2.19,1.297-4.182,3.491-4.443c2.163-0.246,4.186,1.292,4.443,3.491c0.078,0.652,8.426,66.046,52.719,115.735      c1.469,1.647,1.328,4.178-0.319,5.646C411.447,374.816,410.494,375.152,409.549,375.152z"
             id="path3697" /></g></g><g
         id="g3699"><g
           id="g3701"><path
             d="M379.836,257.231h-23.99c-2.209,0-3.998-1.79-3.998-4s1.789-3.998,3.998-3.998h23.99c2.21,0,3.998,1.788,3.998,3.998      S382.046,257.231,379.836,257.231z"
             id="path3703" /></g></g><g
         id="g3705"><g
           id="g3707"><path
             d="M403.825,361.189c-1.46,0-2.874-0.812-3.576-2.21c-24.13-48.268-24.411-103.424-24.411-105.748      c0-2.206,1.788-3.998,3.998-3.998s3.998,1.788,3.998,3.998c0,0.551,0.297,55.636,23.568,102.171      c0.983,1.976,0.188,4.373-1.789,5.365C405.035,361.05,404.427,361.189,403.825,361.189z"
             id="path3709" /></g></g><g
         id="g3711"><g
           id="g3713"><path
             d="M377.024,361.189c-1.452,0-2.851-0.796-3.561-2.179c-1.008-1.968-0.227-4.373,1.741-5.38l15.634-7.997      c1.952-0.991,4.373-0.227,5.38,1.742c1.008,1.959,0.227,4.373-1.741,5.38l-15.634,7.997      C378.266,361.05,377.642,361.189,377.024,361.189z"
             id="path3715" /></g></g><g
         id="g3717"><g
           id="g3719"><path
             d="M366.904,345.595c-1.453,0-2.851-0.797-3.562-2.179c-1.007-1.968-0.227-4.373,1.741-5.38l15.79-8.075      c1.976-0.983,4.374-0.227,5.381,1.741c1.007,1.961,0.227,4.373-1.741,5.381l-15.79,8.074      C368.138,345.454,367.521,345.595,366.904,345.595z"
             id="path3721" /></g></g><g
         id="g3723"><g
           id="g3725"><path
             d="M357.83,329.47c-1.453,0-2.851-0.797-3.562-2.18c-1.007-1.968-0.227-4.373,1.741-5.38l16.946-8.661      c1.968-0.983,4.365-0.226,5.38,1.742c1.008,1.968,0.227,4.373-1.741,5.381l-16.945,8.66      C359.063,329.329,358.446,329.47,357.83,329.47z"
             id="path3727" /></g></g><g
         id="g3729"><g
           id="g3731"><path
             d="M350.364,312.531c-1.452,0-2.851-0.797-3.562-2.179c-1.007-1.968-0.227-4.373,1.742-5.381l17.32-8.863      c1.944-0.991,4.373-0.234,5.381,1.742c1.007,1.959,0.227,4.373-1.742,5.38l-17.32,8.863      C351.605,312.391,350.98,312.531,350.364,312.531z"
             id="path3733" /></g></g><g
         id="g3735"><g
           id="g3737"><path
             d="M343.727,295.156c-1.453,0-2.851-0.797-3.561-2.179c-1.008-1.969-0.227-4.373,1.741-5.381l18.335-9.379      c1.938-0.992,4.373-0.234,5.381,1.742c1.008,1.959,0.227,4.373-1.741,5.38l-18.336,9.379      C344.968,295.016,344.344,295.156,343.727,295.156z"
             id="path3739" /></g></g></g><g
       id="g3741"><g
         id="g3743"><path
           d="M91.96,315.976H3.999c-2.21,0-3.999-1.789-3.999-3.999s1.788-3.998,3.999-3.998H91.96c2.21,0,3.999,1.788,3.999,3.998     S94.17,315.976,91.96,315.976z"
           id="path3745" /></g></g><g
       id="g3747"><g
         id="g3749"><path
           d="M339.854,483.902H115.95c-2.21,0-3.998-1.788-3.998-3.998s1.788-3.999,3.998-3.999h223.903     c2.209,0,3.998,1.789,3.998,3.999S342.062,483.902,339.854,483.902z"
           id="path3751" /></g></g><g
       id="g3753"><g
         id="g3755"><path
           d="M211.908,403.937H99.957c-2.21,0-3.998-1.788-3.998-3.998s1.788-3.998,3.998-3.998h111.951     c2.21,0,3.999,1.788,3.999,3.998S214.118,403.937,211.908,403.937z"
           id="path3757" /></g></g><g
       id="g3759"><g
         id="g3761"><path
           d="M75.968,403.937h-23.99c-2.21,0-3.998-1.788-3.998-3.998s1.788-3.998,3.998-3.998h23.99c2.21,0,3.998,1.788,3.998,3.998     S78.178,403.937,75.968,403.937z"
           id="path3763" /></g></g><g
       id="g3765"><g
         id="g3767"><path
           d="M163.93,355.958H91.96c-2.21,0-3.999-1.789-3.999-3.998c0-2.211,1.789-3.999,3.999-3.999h71.969     c2.21,0,3.998,1.788,3.998,3.999C167.928,354.169,166.14,355.958,163.93,355.958z"
           id="path3769" /></g></g><g
       id="g3771"><g
         id="g3773"><path
           d="M211.908,451.916h-55.976c-2.21,0-3.998-1.788-3.998-3.998s1.788-3.999,3.998-3.999h55.976     c2.21,0,3.999,1.789,3.999,3.999S214.118,451.916,211.908,451.916z"
           id="path3775" /></g></g><g
       id="g3777"><g
         id="g3779"><path
           d="M251.891,451.916h-23.99c-2.21,0-3.998-1.788-3.998-3.998s1.788-3.999,3.998-3.999h23.99c2.21,0,3.999,1.789,3.999,3.999     S254.101,451.916,251.891,451.916z"
           id="path3781" /></g></g><g
       id="g3783"><g
         id="g3785"><path
           d="M371.839,244.001c-0.819,0-1.647-0.25-2.358-0.769c-1.78-1.305-2.171-3.807-0.866-5.588l5.278-7.223     c1.305-1.792,3.819-2.16,5.584-0.871c1.78,1.304,2.171,3.807,0.867,5.587l-5.279,7.224     C374.283,243.436,373.065,244.001,371.839,244.001z"
           id="path3787" /></g></g><g
       id="g3789"><g
         id="g3791"><path
           d="M251.887,212.016c-0.816,0-1.644-0.25-2.354-0.769c-1.785-1.304-2.171-3.803-0.871-5.588l29.179-39.928     c1.312-1.792,3.812-2.159,5.583-0.871c1.781,1.304,2.172,3.803,0.867,5.587l-29.171,39.928     C254.335,211.45,253.121,212.016,251.887,212.016z"
           id="path3793" /></g></g><g
       id="g3795"><g
         id="g3797"><path
           d="M269.118,164.037c-0.82,0-1.647-0.25-2.358-0.77c-1.78-1.304-2.171-3.807-0.867-5.587l93.491-127.945     c1.304-1.789,3.818-2.163,5.583-0.871c1.781,1.304,2.172,3.807,0.867,5.587l-93.49,127.945     C271.562,163.47,270.344,164.037,269.118,164.037z"
           id="path3799" /></g></g><g
       id="g3801"><g
         id="g3803"><path
           d="M387.832,244.001c-0.82,0-1.647-0.25-2.358-0.769c-1.78-1.305-2.171-3.807-0.866-5.588l93.498-127.944     c1.305-1.784,3.811-2.159,5.584-0.871c1.78,1.305,2.171,3.808,0.866,5.588l-93.498,127.944     C390.276,243.436,389.059,244.001,387.832,244.001z"
           id="path3805" /></g></g><g
       id="g3807"><g
         id="g3809"><path
           d="M387.832,244.001c-0.773,0-1.546-0.218-2.233-0.683l-118.714-79.966c-1.835-1.233-2.319-3.717-1.086-5.548     c1.242-1.839,3.733-2.311,5.553-1.082l118.714,79.965c1.835,1.234,2.319,3.717,1.086,5.548     C390.378,243.385,389.113,244.001,387.832,244.001z"
           id="path3811" /></g></g></g></svg>