<?xml version="1.0" encoding="UTF-8" standalone="no"?>
<svg
   xmlns:dc="http://purl.org/dc/elements/1.1/"
   xmlns:cc="http://creativecommons.org/ns#"
   xmlns:rdf="http://www.w3.org/1999/02/22-rdf-syntax-ns#"
   xmlns:svg="http://www.w3.org/2000/svg"
   xmlns="http://www.w3.org/2000/svg"
   xmlns:sodipodi="http://sodipodi.sourceforge.net/DTD/sodipodi-0.dtd"
   xmlns:inkscape="http://www.inkscape.org/namespaces/inkscape"
   version="1.1"
   x="0px"
   y="0px"
   viewBox="0 0 100 125"
   style="enable-background:new 0 0 100 100;"
   xml:space="preserve"
   id="svg3735"
   inkscape:version="0.91 r13725"
   sodipodi:docname="noun_189608_cc.svg"><metadata
     id="metadata3749"><rdf:RDF><cc:Work
         rdf:about=""><dc:format>image/svg+xml</dc:format><dc:type
           rdf:resource="http://purl.org/dc/dcmitype/StillImage" /></cc:Work></rdf:RDF></metadata><defs
     id="defs3747" /><sodipodi:namedview
     pagecolor="#ffffff"
     bordercolor="#666666"
     borderopacity="1"
     objecttolerance="10"
     gridtolerance="10"
     guidetolerance="10"
     inkscape:pageopacity="0"
     inkscape:pageshadow="2"
     inkscape:window-width="640"
     inkscape:window-height="480"
     id="namedview3745"
     showgrid="false"
     inkscape:zoom="1.888"
     inkscape:cx="50"
     inkscape:cy="62.5"
     inkscape:window-x="75"
     inkscape:window-y="34"
     inkscape:window-maximized="0"
     inkscape:current-layer="svg3735" /><path
     d="M67.732,32.975C73.646,32.617,84,28.043,84,18c0-7.897-4.71-13-12-13c-5.021,0-9.458,4.568-9.95,10h-24.1  C37.458,9.568,33.021,5,28,5c-7.29,0-12,5.103-12,13c0,10.043,10.354,14.617,16.268,14.975c0.319,1.909,0.929,3.718,1.801,5.375  c0.009,0.024,0.021,0.045,0.033,0.069c2.576,4.846,7.303,8.366,12.898,9.311V59c0,2.43-1.57,4-4,4c-2.232,0-4.357,1.834-4.877,4H35  c-0.553,0-1,0.447-1,1v20h-2c-0.553,0-1,0.447-1,1v5c0,0.553,0.447,1,1,1h36c0.553,0,1-0.447,1-1v-5c0-0.553-0.447-1-1-1h-2V68  c0-0.553-0.447-1-1-1h-3.123c-0.52-2.166-2.645-4-4.877-4c-2.43,0-4-1.57-4-4V47.729C60.529,46.458,66.472,40.508,67.732,32.975z   M52.652,45.761l2.055-2.054c0.391-0.391,0.391-1.023,0-1.414s-1.023-0.391-1.414,0l-3.688,3.687  c-0.975-0.024-1.933-0.122-2.857-0.314l2.959-2.959c0.391-0.391,0.391-1.023,0-1.414s-1.023-0.391-1.414,0l-3.734,3.734  c-0.758-0.275-1.498-0.59-2.198-0.973l3.347-3.347c0.391-0.391,0.391-1.023,0-1.414s-1.023-0.391-1.414,0l-3.654,3.655  c-0.609-0.442-1.189-0.921-1.73-1.442l3.799-3.798c0.391-0.391,0.391-1.023,0-1.414s-1.023-0.391-1.414,0l-3.739,3.739  c-0.478-0.591-0.904-1.222-1.295-1.877l3.448-3.448c0.391-0.391,0.391-1.023,0-1.414s-1.023-0.391-1.414,0l-3,3  c-0.335-0.782-0.596-1.601-0.805-2.44c0.076-0.043,0.154-0.081,0.219-0.145l5-5c0.391-0.391,0.391-1.023,0-1.414  s-1.023-0.391-1.414,0l-4.217,4.216C34.029,31.012,34,30.51,34,30v-1.586l5.707-5.707c0.391-0.391,0.391-1.023,0-1.414  s-1.023-0.391-1.414,0L34,25.586v-3.172L39.414,17H66v13C66,37.917,60.214,44.491,52.652,45.761z M36.586,17L34,19.586V17H36.586z   M32,26.949C26.894,26.443,22,22.185,22,18c0-4.252,2.355-7,6-7c1.434,0,4,2.52,4,5V26.949z M68,16c0-2.48,2.566-5,4-5  c3.645,0,6,2.748,6,7c0,4.185-4.894,8.443-10,8.949V16z M72,7c4.834,0,10,2.89,10,11c0,9.086-9.587,12.497-14.048,12.946  C67.969,30.63,68,30.319,68,30v-1.051C74.199,28.436,80,23.269,80,18c0-5.299-3.29-9-8-9c-2.321,0-5.348,2.837-5.902,6h-2.029  C64.547,11.04,67.777,7,72,7z M18,18c0-8.11,5.166-11,10-11c4.223,0,7.453,4.04,7.932,8h-2.029C33.348,11.837,30.321,9,28,9  c-4.71,0-8,3.701-8,9c0,5.269,5.801,10.436,12,10.949V30c0,0.319,0.031,0.63,0.048,0.946C27.587,30.497,18,27.086,18,18z M67,93H33  v-3h2h30h2V93z M64,88H36V69h28V88z M57,65c1.122,0,2.286,0.914,2.767,2H40.233c0.48-1.086,1.645-2,2.767-2c3.532,0,6-2.467,6-6  V47.949C49.333,47.968,49.662,48,50,48s0.667-0.032,1-0.051V59C51,62.533,53.468,65,57,65z"
     id="path3737" /><path
     d="M57,72H43c-0.553,0-1,0.447-1,1v11c0,0.553,0.447,1,1,1h14c0.553,0,1-0.447,1-1V73C58,72.447,57.553,72,57,72z M46.414,83  l9-9H56v2.586L49.586,83H46.414z M44,79.414L49.414,74h3.172L44,82.586V79.414z M46.586,74L44,76.586V74H46.586z M52.414,83  L56,79.414V83H52.414z"
     id="path3739" /></svg>