<?xml version="1.0" encoding="UTF-8" standalone="no"?>
<svg
   xmlns:dc="http://purl.org/dc/elements/1.1/"
   xmlns:cc="http://creativecommons.org/ns#"
   xmlns:rdf="http://www.w3.org/1999/02/22-rdf-syntax-ns#"
   xmlns:svg="http://www.w3.org/2000/svg"
   xmlns="http://www.w3.org/2000/svg"
   xmlns:sodipodi="http://sodipodi.sourceforge.net/DTD/sodipodi-0.dtd"
   xmlns:inkscape="http://www.inkscape.org/namespaces/inkscape"
   version="1.0"
   x="0px"
   y="0px"
   viewBox="0 0 100 125"
   enable-background="new 0 0 100 100"
   xml:space="preserve"
   id="svg3908"
   inkscape:version="0.91 r13725"
   sodipodi:docname="noun_597223_cc.svg"><metadata
     id="metadata3954"><rdf:RDF><cc:Work
         rdf:about=""><dc:format>image/svg+xml</dc:format><dc:type
           rdf:resource="http://purl.org/dc/dcmitype/StillImage" /></cc:Work></rdf:RDF></metadata><defs
     id="defs3952" /><sodipodi:namedview
     pagecolor="#ffffff"
     bordercolor="#666666"
     borderopacity="1"
     objecttolerance="10"
     gridtolerance="10"
     guidetolerance="10"
     inkscape:pageopacity="0"
     inkscape:pageshadow="2"
     inkscape:window-width="1301"
     inkscape:window-height="744"
     id="namedview3950"
     showgrid="false"
     inkscape:zoom="1.888"
     inkscape:cx="50"
     inkscape:cy="62.5"
     inkscape:window-x="65"
     inkscape:window-y="24"
     inkscape:window-maximized="1"
     inkscape:current-layer="svg3908" /><rect
     x="10"
     y="61.549187"
     stroke-miterlimit="10"
     width="39.998001"
     height="33.332001"
     id="rect3910"
     style="fill:none;stroke:#000000;stroke-linecap:round;stroke-linejoin:round;stroke-miterlimit:10" /><rect
     x="14.444"
     y="74.881187"
     stroke-miterlimit="10"
     width="31.110001"
     height="15.555"
     id="rect3912"
     style="fill:none;stroke:#000000;stroke-linecap:round;stroke-linejoin:round;stroke-miterlimit:10" /><rect
     x="14.444"
     y="65.993187"
     stroke-miterlimit="10"
     width="31.110001"
     height="4.4439998"
     id="rect3914"
     style="fill:none;stroke:#000000;stroke-linecap:round;stroke-linejoin:round;stroke-miterlimit:10" /><rect
     x="14.444"
     y="70.437187"
     stroke-miterlimit="10"
     width="31.110001"
     height="4.4439998"
     id="rect3916"
     style="fill:none;stroke:#000000;stroke-linecap:round;stroke-linejoin:round;stroke-miterlimit:10" /><polygon
     stroke-miterlimit="10"
     points="49.998,47.778 90,56.666 90,90.002 49.998,81.109 "
     id="polygon3918"
     transform="translate(3.3898304e-8,13.771186)"
     style="fill:none;stroke:#000000;stroke-linecap:round;stroke-linejoin:round;stroke-miterlimit:10" /><path
     stroke-miterlimit="10"
     d="m 38.013,52.054186 c -1.302,1.302 -1.302,3.417 0,4.713 1.302,1.306 3.411,1.306 4.713,0 1.302,-1.302 1.302,-3.411 0,-4.713 l 0.003,0 c -1.302,-1.299 -1.302,-3.411 -0.003,-4.71 1.302,-1.306 3.417,-1.306 4.716,-0.003 1.302,1.302 1.299,3.411 -0.003,4.713 1.302,-1.302 1.306,-3.411 0.003,-4.713 -1.299,-1.302 -3.414,-1.302 -4.716,0.003 -1.299,1.299 -1.299,3.411 0.003,4.71 l -0.003,0 c 1.302,1.302 1.302,3.411 0,4.713 -1.302,1.306 -3.411,1.306 -4.713,0 -1.303,-1.295 -1.303,-3.411 0,-4.713 z"
     id="path3920"
     inkscape:connector-curvature="0"
     style="fill:none;stroke:#000000;stroke-linecap:round;stroke-linejoin:round;stroke-miterlimit:10" /><path
     stroke-miterlimit="10"
     d="m 38.013,56.767186 -1.178,1.182 1.178,-1.182 z"
     id="path3922"
     inkscape:connector-curvature="0"
     style="fill:none;stroke:#000000;stroke-linecap:round;stroke-linejoin:round;stroke-miterlimit:10" /><path
     stroke-miterlimit="10"
     d="m 48.617,46.159186 -1.175,1.182 1.175,-1.182 z"
     id="path3924"
     inkscape:connector-curvature="0"
     style="fill:none;stroke:#000000;stroke-linecap:round;stroke-linejoin:round;stroke-miterlimit:10" /><path
     stroke-miterlimit="10"
     d="m 34.478,32.021186 c -0.651,0.647 -1.706,0.647 -2.356,0 -0.651,-0.655 -0.651,-1.706 0,-2.36 0.651,-0.651 1.702,-0.648 2.356,0 0.651,0.654 0.651,1.705 0,2.36 z"
     id="path3926"
     inkscape:connector-curvature="0"
     style="fill:none;stroke:#000000;stroke-linecap:round;stroke-linejoin:round;stroke-miterlimit:10" /><path
     stroke-miterlimit="10"
     d="m 32.122,53.232186 -7.073,-7.073 c 1.954,-1.953 1.954,-5.116 0,-7.069 l 4.716,-4.713 c 1.954,1.95 5.12,1.95 7.07,0 l 7.073,7.073 -7.073,-7.073 c -1.95,1.95 -5.116,1.95 -7.07,0 l -4.716,4.713 c 1.954,1.954 1.954,5.116 0,7.069 l 7.073,7.073 z"
     id="path3928"
     inkscape:connector-curvature="0"
     style="fill:none;stroke:#000000;stroke-linecap:round;stroke-linejoin:round;stroke-miterlimit:10" /><path
     stroke-miterlimit="10"
     d="m 22.692,41.446186 c 0.651,0.651 0.651,1.709 0,2.36 -0.647,0.648 -1.705,0.648 -2.356,-0.003 -0.651,-0.647 -0.651,-1.705 0,-2.353 0.651,-0.655 1.708,-0.655 2.356,-0.004 z"
     id="path3930"
     inkscape:connector-curvature="0"
     style="fill:none;stroke:#000000;stroke-linecap:round;stroke-linejoin:round;stroke-miterlimit:10" /><path
     stroke-miterlimit="10"
     d="m 38.013,47.341186 -7.07,-7.069 7.07,7.069 z"
     id="path3932"
     inkscape:connector-curvature="0"
     style="fill:none;stroke:#000000;stroke-linecap:round;stroke-linejoin:round;stroke-miterlimit:10" /><polygon
     stroke-miterlimit="10"
     points="85.556,64.566 85.556,69.014 54.442,62.096 54.442,57.651 "
     id="polygon3934"
     transform="translate(3.3898304e-8,13.771186)"
     style="fill:none;stroke:#000000;stroke-linecap:round;stroke-linejoin:round;stroke-miterlimit:10" /><polygon
     stroke-miterlimit="10"
     points="54.442,62.096 85.556,69.014 85.556,84.565 54.442,77.654 "
     id="polygon3936"
     transform="translate(3.3898304e-8,13.771186)"
     style="fill:none;stroke:#000000;stroke-linecap:round;stroke-linejoin:round;stroke-miterlimit:10" /><polygon
     stroke-miterlimit="10"
     points="33.365,47.778 49.998,47.778 49.998,47.778 67.138,51.588 71.011,47.712 33.3,9.998 14.444,28.854 "
     id="polygon3938"
     transform="translate(3.3898304e-8,13.771186)"
     style="fill:none;stroke:#000000;stroke-linecap:round;stroke-linejoin:round;stroke-miterlimit:10" /><path
     stroke-miterlimit="10"
     d="m 59.459,63.647186 c -0.899,-1.86 -0.597,-4.155 0.95,-5.698 l -7.076,-7.076 7.076,7.076 c -1.547,1.543 -1.849,3.838 -0.95,5.698 z"
     id="path3940"
     inkscape:connector-curvature="0"
     style="fill:none;stroke:#000000;stroke-linecap:round;stroke-linejoin:round;stroke-miterlimit:10" /><polygon
     stroke-miterlimit="10"
     points="90,56.666 90,52.219 70.772,47.95 67.138,51.588 "
     id="polygon3942"
     transform="translate(3.3898304e-8,13.771186)"
     style="fill:none;stroke:#000000;stroke-linecap:round;stroke-linejoin:round;stroke-miterlimit:10" /><polygon
     stroke-miterlimit="10"
     points="10,47.778 33.365,47.778 28.921,43.333 10,43.333 "
     id="polygon3944"
     transform="translate(3.3898304e-8,13.771186)"
     style="fill:none;stroke:#000000;stroke-linecap:round;stroke-linejoin:round;stroke-miterlimit:10" /></svg>