<?xml version="1.0" encoding="UTF-8" standalone="no"?>
<svg
   xmlns:dc="http://purl.org/dc/elements/1.1/"
   xmlns:cc="http://creativecommons.org/ns#"
   xmlns:rdf="http://www.w3.org/1999/02/22-rdf-syntax-ns#"
   xmlns:svg="http://www.w3.org/2000/svg"
   xmlns="http://www.w3.org/2000/svg"
   xmlns:sodipodi="http://sodipodi.sourceforge.net/DTD/sodipodi-0.dtd"
   xmlns:inkscape="http://www.inkscape.org/namespaces/inkscape"
   version="1.0"
   x="0px"
   y="0px"
   viewBox="0 0 100 125"
   enable-background="new 0 0 100 100"
   xml:space="preserve"
   id="svg3908"
   inkscape:version="0.91 r13725"
   sodipodi:docname="noun_597223_cc.svg"><metadata
     id="metadata3954"><rdf:RDF><cc:Work
         rdf:about=""><dc:format>image/svg+xml</dc:format><dc:type
           rdf:resource="http://purl.org/dc/dcmitype/StillImage" /></cc:Work></rdf:RDF></metadata><defs
     id="defs3952" /><sodipodi:namedview
     pagecolor="#ffffff"
     bordercolor="#666666"
     borderopacity="1"
     objecttolerance="10"
     gridtolerance="10"
     guidetolerance="10"
     inkscape:pageopacity="0"
     inkscape:pageshadow="2"
     inkscape:window-width="640"
     inkscape:window-height="480"
     id="namedview3950"
     showgrid="false"
     inkscape:zoom="1.888"
     inkscape:cx="50"
     inkscape:cy="62.5"
     inkscape:window-x="65"
     inkscape:window-y="24"
     inkscape:window-maximized="0"
     inkscape:current-layer="svg3908" /><rect
     x="10"
     y="47.778"
     fill="none"
     stroke="#000000"
     stroke-linecap="round"
     stroke-linejoin="round"
     stroke-miterlimit="10"
     width="39.998"
     height="33.332"
     id="rect3910" /><rect
     x="14.444"
     y="61.11"
     fill="none"
     stroke="#000000"
     stroke-linecap="round"
     stroke-linejoin="round"
     stroke-miterlimit="10"
     width="31.11"
     height="15.555"
     id="rect3912" /><rect
     x="14.444"
     y="52.222"
     fill="none"
     stroke="#000000"
     stroke-linecap="round"
     stroke-linejoin="round"
     stroke-miterlimit="10"
     width="31.11"
     height="4.444"
     id="rect3914" /><rect
     x="14.444"
     y="56.666"
     fill="none"
     stroke="#000000"
     stroke-linecap="round"
     stroke-linejoin="round"
     stroke-miterlimit="10"
     width="31.11"
     height="4.444"
     id="rect3916" /><polygon
     fill="none"
     stroke="#000000"
     stroke-linecap="round"
     stroke-linejoin="round"
     stroke-miterlimit="10"
     points="90,90.002   49.998,81.109 49.998,47.778 90,56.666 "
     id="polygon3918" /><path
     fill="none"
     stroke="#000000"
     stroke-linecap="round"
     stroke-linejoin="round"
     stroke-miterlimit="10"
     d="M38.013,38.283  c-1.302,1.302-1.302,3.417,0,4.713c1.302,1.306,3.411,1.306,4.713,0c1.302-1.302,1.302-3.411,0-4.713h0.003  c-1.302-1.299-1.302-3.411-0.003-4.71c1.302-1.306,3.417-1.306,4.716-0.003c1.302,1.302,1.299,3.411-0.003,4.713  c1.302-1.302,1.306-3.411,0.003-4.713c-1.299-1.302-3.414-1.302-4.716,0.003c-1.299,1.299-1.299,3.411,0.003,4.71h-0.003  c1.302,1.302,1.302,3.411,0,4.713c-1.302,1.306-3.411,1.306-4.713,0C36.71,41.701,36.71,39.585,38.013,38.283z"
     id="path3920" /><path
     fill="none"
     stroke="#000000"
     stroke-linecap="round"
     stroke-linejoin="round"
     stroke-miterlimit="10"
     d="M38.013,42.996  l-1.178,1.182L38.013,42.996z"
     id="path3922" /><path
     fill="none"
     stroke="#000000"
     stroke-linecap="round"
     stroke-linejoin="round"
     stroke-miterlimit="10"
     d="M48.617,32.388  l-1.175,1.182L48.617,32.388z"
     id="path3924" /><path
     fill="none"
     stroke="#000000"
     stroke-linecap="round"
     stroke-linejoin="round"
     stroke-miterlimit="10"
     d="M34.478,18.25  c-0.651,0.647-1.706,0.647-2.356,0c-0.651-0.655-0.651-1.706,0-2.36c0.651-0.651,1.702-0.648,2.356,0  C35.129,16.544,35.129,17.595,34.478,18.25z"
     id="path3926" /><path
     fill="none"
     stroke="#000000"
     stroke-linecap="round"
     stroke-linejoin="round"
     stroke-miterlimit="10"
     d="M32.122,39.461  l-7.073-7.073c1.954-1.953,1.954-5.116,0-7.069l4.716-4.713c1.954,1.95,5.12,1.95,7.07,0l7.073,7.073l-7.073-7.073  c-1.95,1.95-5.116,1.95-7.07,0l-4.716,4.713c1.954,1.954,1.954,5.116,0,7.069L32.122,39.461z"
     id="path3928" /><path
     fill="none"
     stroke="#000000"
     stroke-linecap="round"
     stroke-linejoin="round"
     stroke-miterlimit="10"
     d="M22.692,27.675  c0.651,0.651,0.651,1.709,0,2.36c-0.647,0.648-1.705,0.648-2.356-0.003c-0.651-0.647-0.651-1.705,0-2.353  C20.987,27.024,22.044,27.024,22.692,27.675z"
     id="path3930" /><path
     fill="none"
     stroke="#000000"
     stroke-linecap="round"
     stroke-linejoin="round"
     stroke-miterlimit="10"
     d="M38.013,33.57  l-7.07-7.069L38.013,33.57z"
     id="path3932" /><polygon
     fill="none"
     stroke="#000000"
     stroke-linecap="round"
     stroke-linejoin="round"
     stroke-miterlimit="10"
     points="  54.442,62.096 54.442,57.651 85.556,64.566 85.556,69.014 "
     id="polygon3934" /><polygon
     fill="none"
     stroke="#000000"
     stroke-linecap="round"
     stroke-linejoin="round"
     stroke-miterlimit="10"
     points="  85.556,84.565 54.442,77.654 54.442,62.096 85.556,69.014 "
     id="polygon3936" /><polygon
     fill="none"
     stroke="#000000"
     stroke-linecap="round"
     stroke-linejoin="round"
     stroke-miterlimit="10"
     points="33.3,9.998   14.444,28.854 33.365,47.778 49.998,47.778 49.998,47.778 67.138,51.588 71.011,47.712 "
     id="polygon3938" /><path
     fill="none"
     stroke="#000000"
     stroke-linecap="round"
     stroke-linejoin="round"
     stroke-miterlimit="10"
     d="M59.459,49.876  c-0.899-1.86-0.597-4.155,0.95-5.698l-7.076-7.076l7.076,7.076C58.862,45.721,58.56,48.016,59.459,49.876z"
     id="path3940" /><polygon
     fill="none"
     stroke="#000000"
     stroke-linecap="round"
     stroke-linejoin="round"
     stroke-miterlimit="10"
     points="  70.772,47.95 67.138,51.588 90,56.666 90,52.219 "
     id="polygon3942" /><polygon
     fill="none"
     stroke="#000000"
     stroke-linecap="round"
     stroke-linejoin="round"
     stroke-miterlimit="10"
     points="  28.921,43.333 10,43.333 10,47.778 33.365,47.778 "
     id="polygon3944" /></svg>