<?xml version="1.0" encoding="UTF-8" standalone="no"?>
<svg
   xmlns:dc="http://purl.org/dc/elements/1.1/"
   xmlns:cc="http://creativecommons.org/ns#"
   xmlns:rdf="http://www.w3.org/1999/02/22-rdf-syntax-ns#"
   xmlns:svg="http://www.w3.org/2000/svg"
   xmlns="http://www.w3.org/2000/svg"
   xmlns:sodipodi="http://sodipodi.sourceforge.net/DTD/sodipodi-0.dtd"
   xmlns:inkscape="http://www.inkscape.org/namespaces/inkscape"
   version="1.1"
   x="0px"
   y="0px"
   viewBox="0 0 100 125"
   enable-background="new 0 0 100 100"
   xml:space="preserve"
   id="svg3554"
   inkscape:version="0.91 r13725"
   sodipodi:docname="noun_70943_cc.svg"><metadata
     id="metadata3566"><rdf:RDF><cc:Work
         rdf:about=""><dc:format>image/svg+xml</dc:format><dc:type
           rdf:resource="http://purl.org/dc/dcmitype/StillImage" /></cc:Work></rdf:RDF></metadata><defs
     id="defs3564" /><sodipodi:namedview
     pagecolor="#ffffff"
     bordercolor="#666666"
     borderopacity="1"
     objecttolerance="10"
     gridtolerance="10"
     guidetolerance="10"
     inkscape:pageopacity="0"
     inkscape:pageshadow="2"
     inkscape:window-width="1301"
     inkscape:window-height="744"
     id="namedview3562"
     showgrid="false"
     inkscape:zoom="4.856"
     inkscape:cx="50"
     inkscape:cy="62.5"
     inkscape:window-x="65"
     inkscape:window-y="24"
     inkscape:window-maximized="1"
     inkscape:current-layer="svg3554" /><path
     fill="#000000"
     d="M48,87c1.104,0,2-0.896,2-2V18.637l17.169,17.169c0.39,0.39,0.902,0.585,1.414,0.585  s1.024-0.195,1.414-0.585c0.781-0.781,0.781-2.047,0-2.829L49.685,12.665c-0.78-0.781-2.048-0.781-2.828,0L26.544,32.978  c-0.781,0.781-0.781,2.047,0,2.829c0.78,0.781,2.048,0.781,2.828,0L46,19.179V85C46,86.104,46.896,87,48,87z"
     id="path3556" /></svg>