<svg xmlns="http://www.w3.org/2000/svg" xmlns:xlink="http://www.w3.org/1999/xlink" version="1.1" x="0px" y="0px" viewBox="0 0 100 125" style="enable-background:new 0 0 100 100;" xml:space="preserve"><path d="M91.1,87L74,69.9c5.6-6.6,9-15.1,9-24.4C83,24.8,66.2,8,45.5,8S8,24.8,8,45.5s16.8,37.6,37.5,37.6c9.3,0,17.8-3.4,24.3-9  l17.1,17c0.6,0.6,1.3,0.9,2.1,0.9s1.5-0.3,2.1-0.8C92.3,90.1,92.3,88.2,91.1,87z M45.5,77C28.1,77,14,62.9,14,45.5S28.1,14,45.5,14  S77,28.1,77,45.5S62.9,77,45.5,77z"/><text x="0" y="115" fill="#000000" font-size="5px" font-weight="bold" font-family="'Helvetica Neue', Helvetica, Arial-Unicode, Arial, Sans-serif">Created by Shastry</text><text x="0" y="120" fill="#000000" font-size="5px" font-weight="bold" font-family="'Helvetica Neue', Helvetica, Arial-Unicode, Arial, Sans-serif">from the Noun Project</text></svg>