<svg xmlns="http://www.w3.org/2000/svg" xmlns:xlink="http://www.w3.org/1999/xlink" version="1.1" x="0px" y="0px" viewBox="0 0 100 125" enable-background="new 0 0 100 100" xml:space="preserve"><g><path fill="#000000" d="M75,50c-13.8,0-25,11.2-25,25c0,13.8,11.2,25,25,25c13.8,0,25-11.2,25-25C100,61.2,88.8,50,75,50z    M86.4,77.3h-9.1v0.5v8.6c0,1.3-1,2.3-2.3,2.3s-2.3-1-2.3-2.3v-9.1h-9.1c-1.3,0-2.3-1-2.3-2.3s1-2.3,2.3-2.3h9.1v-9.1   c0-1.3,1-2.3,2.3-2.3s2.3,1,2.3,2.3v9.1h9.1c1.3,0,2.3,1,2.3,2.3S87.6,77.3,86.4,77.3z"/><circle fill="#000000" cx="39.2" cy="21.6" r="21.6"/><path fill="#000000" d="M45,75c0-8.2,3.3-15.6,8.6-21c1.6-1.6,0.9-4.3-1.2-5c-4.2-1.3-8.6-2.1-13.2-2.1C23.3,47,9.5,55.5,2,68.2   C-3.6,77.9,3.2,90,14.4,90h29.9c2.1,0,3.6-2.1,2.8-4.1C45.7,82.5,45,78.8,45,75z"/></g><text x="0" y="115" fill="#000000" font-size="5px" font-weight="bold" font-family="'Helvetica Neue', Helvetica, Arial-Unicode, Arial, Sans-serif">Created by carlos gonzalez</text><text x="0" y="120" fill="#000000" font-size="5px" font-weight="bold" font-family="'Helvetica Neue', Helvetica, Arial-Unicode, Arial, Sans-serif">from the Noun Project</text></svg>