<svg xmlns="http://www.w3.org/2000/svg" xmlns:xlink="http://www.w3.org/1999/xlink" version="1.1" x="0px" y="0px" viewBox="0 0 100 125" style="enable-background:new 0 0 100 100;" xml:space="preserve"><g><path d="M17.1,63c-0.6-2.5-1-5.2-1-7.9c0-14.1,8.6-26.2,20.9-31.3c2.6,4.5,7.4,7.7,13,7.7c8.3,0,15-6.7,15-15   s-6.7-15-15-15c-7.6,0-13.8,5.6-14.8,12.9c-16.7,6.1-28.6,22-28.6,40.7c0,3.7,0.5,7.4,1.4,10.8C4.3,68.7,1.9,73,1.9,78   c0,8.3,6.7,15,15,15c8.3,0,15-6.7,15-15C31.9,69.8,25.3,63.1,17.1,63z M83.1,63c-8.3,0-15,6.7-15,15c0,1.8,0.4,3.5,0.9,5.1   c-5.4,3.7-12,6-19.1,6c-5.2,0-10.2-1.2-14.6-3.3c-1.3,3-3.2,5.6-5.7,7.7c6.1,3.2,13,5.1,20.3,5.1c9.3,0,17.9-3,24.9-8   c2.4,1.5,5.2,2.5,8.2,2.5c8.3,0,15-6.7,15-15S91.4,63,83.1,63z M83.9,55.1c0,1,0,1.9-0.1,2.8c3.4,0.1,6.5,1,9.2,2.6   c0.2-1.8,0.4-3.6,0.4-5.4c0-16.7-9.5-31.2-23.3-38.4c0,3.4-0.9,6.6-2.5,9.5C77.4,32.1,83.9,42.9,83.9,55.1z"/></g><text x="0" y="115" fill="#000000" font-size="5px" font-weight="bold" font-family="'Helvetica Neue', Helvetica, Arial-Unicode, Arial, Sans-serif">Created by Vaibhav Radhakrishnan</text><text x="0" y="120" fill="#000000" font-size="5px" font-weight="bold" font-family="'Helvetica Neue', Helvetica, Arial-Unicode, Arial, Sans-serif">from the Noun Project</text></svg>