<?xml version="1.0" encoding="UTF-8" standalone="no"?>
<svg
   xmlns:dc="http://purl.org/dc/elements/1.1/"
   xmlns:cc="http://creativecommons.org/ns#"
   xmlns:rdf="http://www.w3.org/1999/02/22-rdf-syntax-ns#"
   xmlns:svg="http://www.w3.org/2000/svg"
   xmlns="http://www.w3.org/2000/svg"
   xmlns:sodipodi="http://sodipodi.sourceforge.net/DTD/sodipodi-0.dtd"
   xmlns:inkscape="http://www.inkscape.org/namespaces/inkscape"
   version="1.1"
   x="0px"
   y="0px"
   viewBox="0 0 100 125"
   enable-background="new 0 0 100 100"
   xml:space="preserve"
   id="svg3426"
   inkscape:version="0.91 r13725"
   sodipodi:docname="noun_70943_cc.svg"><metadata
     id="metadata3438"><rdf:RDF><cc:Work
         rdf:about=""><dc:format>image/svg+xml</dc:format><dc:type
           rdf:resource="http://purl.org/dc/dcmitype/StillImage" /></cc:Work></rdf:RDF></metadata><defs
     id="defs3436" /><sodipodi:namedview
     pagecolor="#ffffff"
     bordercolor="#666666"
     borderopacity="1"
     objecttolerance="10"
     gridtolerance="10"
     guidetolerance="10"
     inkscape:pageopacity="0"
     inkscape:pageshadow="2"
     inkscape:window-width="1301"
     inkscape:window-height="744"
     id="namedview3434"
     showgrid="false"
     inkscape:zoom="4.856"
     inkscape:cx="50"
     inkscape:cy="62.5"
     inkscape:window-x="65"
     inkscape:window-y="24"
     inkscape:window-maximized="1"
     inkscape:current-layer="svg3426" /><path
     d="m 50.471169,98.532125 c 1.104,0 2,-0.896 2,-2 l 0,-66.363 17.169,17.169 c 0.39,0.39 0.902,0.585 1.414,0.585 0.512,0 1.024,-0.195 1.414,-0.585 0.781,-0.781 0.781,-2.047 0,-2.829 l -20.312,-20.312 c -0.78,-0.781 -2.048,-0.781 -2.828,0 l -20.313,20.313 c -0.781,0.781 -0.781,2.047 0,2.829 0.78,0.781 2.048,0.781 2.828,0 l 16.628,-16.628 0,65.821 c 0,1.104 0.896,2 2,2 z"
     id="path3428"
     inkscape:connector-curvature="0"
     style="fill:#000000" /></svg>