<?xml version="1.0" encoding="UTF-8" standalone="no"?>
<svg
   xmlns:dc="http://purl.org/dc/elements/1.1/"
   xmlns:cc="http://creativecommons.org/ns#"
   xmlns:rdf="http://www.w3.org/1999/02/22-rdf-syntax-ns#"
   xmlns:svg="http://www.w3.org/2000/svg"
   xmlns="http://www.w3.org/2000/svg"
   xmlns:sodipodi="http://sodipodi.sourceforge.net/DTD/sodipodi-0.dtd"
   xmlns:inkscape="http://www.inkscape.org/namespaces/inkscape"
   version="1.1"
   x="0px"
   y="0px"
   viewBox="0 0 52 65"
   enable-background="new 0 0 52 52"
   xml:space="preserve"
   id="svg3550"
   inkscape:version="0.91 r13725"
   sodipodi:docname="noun_964364_cc.svg"><metadata
     id="metadata3562"><rdf:RDF><cc:Work
         rdf:about=""><dc:format>image/svg+xml</dc:format><dc:type
           rdf:resource="http://purl.org/dc/dcmitype/StillImage" /></cc:Work></rdf:RDF></metadata><defs
     id="defs3560" /><sodipodi:namedview
     pagecolor="#ffffff"
     bordercolor="#666666"
     borderopacity="1"
     objecttolerance="10"
     gridtolerance="10"
     guidetolerance="10"
     inkscape:pageopacity="0"
     inkscape:pageshadow="2"
     inkscape:window-width="1301"
     inkscape:window-height="744"
     id="namedview3558"
     showgrid="false"
     inkscape:zoom="3.6307692"
     inkscape:cx="26"
     inkscape:cy="32.5"
     inkscape:window-x="65"
     inkscape:window-y="24"
     inkscape:window-maximized="1"
     inkscape:current-layer="svg3550" /><path
     d="m 47.135119,15.867977 c -0.05216,-0.354903 -0.292225,-0.668022 -0.615726,-0.803563 L 42.699988,13.425952 41.719035,9.4081401 C 41.635535,9.0532376 41.374644,8.7714557 41.030249,8.6568066 40.685919,8.5523486 40.310191,8.6254693 40.03892,8.8550221 l -7.169262,6.0631509 c -0.302673,0.26089 -0.438339,0.657321 -0.344391,1.043561 l 0.960057,3.934247 -2.813614,2.506992 c -2.683998,-2.619094 -6.345698,-4.240486 -10.383,-4.240486 -8.206833,0 -14.8839929,6.67716 -14.8839929,14.883993 0,7.033848 4.9102909,12.929863 11.4791719,14.47559 l 0,7.000976 -4.174245,0 0,2.087124 4.174245,0 6.261366,0 4.174244,0 0,-2.087124 -4.174244,0 0,-6.8741 c 6.843975,-1.336807 12.026939,-7.372951 12.026939,-14.602466 0,-3.420109 -1.171524,-6.565314 -3.118263,-9.081732 l 2.798454,-2.492981 3.673359,1.575788 c 0.125222,0.06267 0.271336,0.08357 0.407002,0.08357 0.239998,0 0.479999,-0.08357 0.678276,-0.239998 l 7.169262,-6.073597 c 0.271335,-0.229552 0.407001,-0.594901 0.354835,-0.949548 z m -26.076986,38.655069 -2.087122,0 0,-6.659325 c 0.434965,0.03847 0.872925,0.06675 1.317699,0.06675 0.25968,0 0.512928,-0.02573 0.769423,-0.03898 l 0,6.631554 z M 31.162535,33.04648 c 0,5.996399 -4.877935,10.874843 -10.873825,10.874843 -5.995889,0 -10.874334,-4.878444 -10.874334,-10.874843 0,-5.995381 4.878445,-10.873825 10.874334,-10.873825 2.848519,0 5.436657,1.109802 7.377348,2.908519 l -1.564451,1.394133 c -1.550945,-1.373751 -3.583164,-2.215531 -5.812897,-2.215531 -4.845323,0 -8.787212,3.941889 -8.787212,8.786704 0,4.845832 3.941889,8.787723 8.787212,8.787723 4.844815,0 8.786703,-3.941891 8.786703,-8.787723 0,-1.865214 -0.588531,-3.593102 -1.583559,-5.017296 l 1.561713,-1.391331 c 1.319545,1.799736 2.108968,4.011189 2.108968,6.408627 z m -5.217805,0 c 0,3.119472 -2.537056,5.657039 -5.65602,5.657039 -3.118963,0 -5.656528,-2.537567 -5.656528,-5.657039 0,-3.118454 2.537565,-5.65602 5.656528,-5.65602 1.300949,0 2.49712,0.445858 3.45374,1.187001 l -1.606043,1.431074 c -0.54076,-0.330189 -1.169102,-0.530953 -1.847697,-0.530953 -1.968397,0 -3.569406,1.60101 -3.569406,3.568898 0,1.968906 1.601009,3.569915 3.569406,3.569915 1.967888,0 3.568898,-1.601009 3.568898,-3.569915 0,-0.530697 -0.124075,-1.030058 -0.332674,-1.48305 l 1.603622,-1.428526 c 0.514519,0.851715 0.816174,1.845848 0.816174,2.911576 z"
     id="path3552"
     inkscape:connector-curvature="0" /></svg>