<?xml version="1.0" encoding="utf-8"?>
<!-- Generator: Adobe Illustrator 16.0.0, SVG Export Plug-In . SVG Version: 6.00 Build 0)  -->
<!DOCTYPE svg PUBLIC "-//W3C//DTD SVG 1.1//EN" "http://www.w3.org/Graphics/SVG/1.1/DTD/svg11.dtd">
<svg version="1.1" id="Layer_1" xmlns="http://www.w3.org/2000/svg" xmlns:xlink="http://www.w3.org/1999/xlink" x="0px" y="0px"
	 width="206.167px" height="75.834px" viewBox="-106.167 0 206.167 75.834" enable-background="new -106.167 0 206.167 75.834"
	 xml:space="preserve">
<path d="M18.649,39.415c0,0.883,0.717,1.6,1.599,1.6h53.091L59.604,54.75c-0.312,0.312-0.468,0.722-0.468,1.131
	s0.155,0.819,0.468,1.132c0.625,0.625,1.638,0.625,2.263,0l16.25-16.25c0.625-0.624,0.625-1.639,0-2.263l-16.25-16.25
	c-0.625-0.625-1.638-0.625-2.264,0c-0.625,0.624-0.625,1.638,0,2.262l13.303,13.302H20.248
	C19.366,37.814,18.649,38.531,18.649,39.415z"/>
<g>
	<path d="M-73,39.428c0,0.888,0.9,1.614,2,1.614H70.905c1.1,0,2-0.726,2-1.614c0-0.887-0.9-1.613-2-1.613H-71
		C-72.1,37.814-73,38.541-73,39.428z"/>
</g>
</svg>
