<?xml version="1.0" encoding="UTF-8" standalone="no"?>
<!-- Created with Inkscape (http://www.inkscape.org/) -->

<svg
   xmlns:dc="http://purl.org/dc/elements/1.1/"
   xmlns:cc="http://creativecommons.org/ns#"
   xmlns:rdf="http://www.w3.org/1999/02/22-rdf-syntax-ns#"
   xmlns:svg="http://www.w3.org/2000/svg"
   xmlns="http://www.w3.org/2000/svg"
   xmlns:sodipodi="http://sodipodi.sourceforge.net/DTD/sodipodi-0.dtd"
   xmlns:inkscape="http://www.inkscape.org/namespaces/inkscape"
   width="157.86269mm"
   height="88.484497mm"
   viewBox="0 0 559.35607 313.52781"
   id="svg3617"
   version="1.1"
   inkscape:version="0.91 r13725"
   sodipodi:docname="mi-logo-centr.svg">
  <defs
     id="defs3619" />
  <sodipodi:namedview
     id="base"
     pagecolor="#ffffff"
     bordercolor="#666666"
     borderopacity="1.0"
     inkscape:pageopacity="0.0"
     inkscape:pageshadow="2"
     inkscape:zoom="0.57679761"
     inkscape:cx="330.30216"
     inkscape:cy="207.0357"
     inkscape:document-units="px"
     inkscape:current-layer="layer1"
     showgrid="true"
     inkscape:window-width="1301"
     inkscape:window-height="744"
     inkscape:window-x="65"
     inkscape:window-y="24"
     inkscape:window-maximized="1"
     inkscape:snap-page="false"
     inkscape:snap-grids="true"
     inkscape:snap-to-guides="true"
     fit-margin-top="0"
     fit-margin-left="0"
     fit-margin-right="0"
     fit-margin-bottom="0">
    <inkscape:grid
       type="xygrid"
       id="grid3817"
       originx="-41.745079"
       originy="-319.14541" />
  </sodipodi:namedview>
  <metadata
     id="metadata3622">
    <rdf:RDF>
      <cc:Work
         rdf:about="">
        <dc:format>image/svg+xml</dc:format>
        <dc:type
           rdf:resource="http://purl.org/dc/dcmitype/StillImage" />
        <dc:title></dc:title>
      </cc:Work>
    </rdf:RDF>
  </metadata>
  <g
     inkscape:label="Layer 1"
     inkscape:groupmode="layer"
     id="layer1"
     transform="translate(-41.74508,-419.68812)">
    <g
       id="g3391"
       transform="matrix(1.1437926,0,0,1.1344936,52.147351,450.60023)">
      <path
         d="m 19.053,98.431 c 0.018,-0.101 0.035,-0.198 0.053,-0.298 -2.707,-3.105 -4.357,-7.154 -4.357,-11.597 0,-1.977 0.339,-3.873 0.938,-5.648 -0.06,0.601 -0.092,1.209 -0.092,1.826 0,10.15 8.227,18.377 18.377,18.377 5.855,0 11.059,-2.748 14.424,-7.013 -2.833,5.984 -8.909,10.134 -15.969,10.134 -4.544,0 -8.674,-1.729 -11.805,-4.545 -3.651,6.089 -5.763,13.261 -5.763,20.943 0,7.638 2.085,13.612 5.697,18.161 l 8.032,72.739 c 0,5.123 5.131,9.275 11.459,9.275 6.328,0 11.461,-4.152 11.461,-9.275 l 0,-60.678 c 0.695,0.018 1.396,0.028 2.102,0.028 0.703,0 1.404,-0.01 2.1,-0.028 l 0,60.678 c 0,5.123 5.133,9.275 11.461,9.275 6.328,0 11.461,-4.152 11.461,-9.275 l 8.031,-72.74 c 3.611,-4.549 5.697,-10.523 5.697,-18.16 0,-7.793 -2.177,-15.059 -5.926,-21.204 -3.162,2.973 -7.408,4.807 -12.092,4.807 -7.06,0 -13.137,-4.149 -15.97,-10.134 3.365,4.266 8.569,7.013 14.425,7.013 10.148,0 18.377,-8.228 18.377,-18.377 0,-0.617 -0.033,-1.226 -0.093,-1.826 0.6,1.775 0.938,3.671 0.938,5.648 0,4.239 -1.495,8.127 -3.983,11.172 0.042,0.24 0.085,0.476 0.127,0.72 3.92,6.438 6.196,14.04 6.196,22.182 0,5.263 -0.973,9.947 -2.856,14.025 0.923,3.417 4.037,5.91 7.711,5.911 0.073,0 0.146,-0.001 0.22,-0.003 4.418,-0.119 7.9,-3.796 7.781,-8.212 -1.082,-38.447 -7.36,-58.916 -14.827,-70.688 -3.734,-5.855 -7.9,-9.46 -11.643,-11.452 -3.737,-2.01 -6.911,-2.351 -8.409,-2.343 -0.266,0 -0.493,0.01 -0.678,0.025 -0.179,0.013 -0.353,0.041 -0.528,0.065 -0.106,-0.005 -0.212,-0.016 -0.319,-0.016 l -17.201,0 -17.204,0 c -0.105,0 -0.209,0.011 -0.313,0.016 -0.18,-0.025 -0.359,-0.053 -0.543,-0.066 -0.182,-0.012 -0.407,-0.022 -0.67,-0.022 -1.5,-0.008 -4.673,0.332 -8.411,2.34 -5.663,3.011 -12.057,9.557 -16.96,22.056 -4.941,12.545 -8.714,31.233 -9.506,60.084 -0.12,4.417 3.362,8.095 7.781,8.215 0.072,0.002 0.146,0.003 0.218,0.003 3.674,0 6.789,-2.494 7.713,-5.912 -1.884,-4.079 -2.858,-8.764 -2.858,-14.026 0.001,-8.142 2.276,-15.742 6.196,-22.18 z"
         id="path3393"
         inkscape:connector-curvature="0" />
      <circle
         cx="53.609001"
         cy="20.856001"
         r="20.856001"
         id="circle3395" />
    </g>
    <path
       d="m 352.25012,528.84438 c 16.76726,-1.00858 46.1227,-13.89477 46.1227,-42.18865 0,-22.24797 -13.3537,-36.62452 -34.02216,-36.62452 -14.23541,0 -26.81511,12.8693 -28.21002,28.17271 l -68.32784,0 c -1.39489,-15.30341 -13.97459,-28.17271 -28.21002,-28.17271 -20.66846,0 -34.02216,14.37655 -34.02216,36.62452 0,28.29388 29.35546,41.18007 46.12271,42.18865 0.90441,5.37819 2.63387,10.47462 5.10615,15.14284 0.0256,0.0677 0.0596,0.12681 0.0934,0.1944 7.30342,13.65248 20.70533,23.56929 36.56817,26.23162 l 0,31.75064 c 0,6.84597 -4.45123,11.26908 -11.34073,11.26908 -6.32811,0 -12.35288,5.16688 -13.82717,11.26909 l -8.85427,0 c -1.56785,0 -2.83516,1.25931 -2.83516,2.81728 l 0,56.34542 -5.67037,0 c -1.56785,0 -2.83518,1.25932 -2.83518,2.81729 l 0,14.08634 c 0,1.55797 1.26733,2.81728 2.83518,2.81728 l 102.06644,0 c 1.56787,0 2.83519,-1.25931 2.83519,-2.81728 l 0,-14.08634 c 0,-1.55797 -1.26732,-2.81729 -2.83519,-2.81729 l -5.67035,0 0,-56.34542 c 0,-1.55797 -1.26732,-2.81728 -2.83517,-2.81728 l -8.85427,0 c -1.47429,-6.10221 -7.49904,-11.26909 -13.82717,-11.26909 -6.88948,0 -11.34072,-4.42311 -11.34072,-11.26908 l 0,-31.75347 c 21.34607,-3.58074 38.19555,-20.34352 41.76787,-41.56603 z m -42.7545,36.02165 5.82629,-5.78669 c 1.10856,-1.10156 1.10856,-2.88207 0,-3.98361 -1.10857,-1.10157 -2.90039,-1.10157 -4.00893,0 l -10.45613,10.38728 c -2.76432,-0.0676 -5.48042,-0.34371 -8.10012,-0.88462 l 8.38927,-8.33633 c 1.10857,-1.10156 1.10857,-2.88206 0,-3.98362 -1.10853,-1.10155 -2.90036,-1.10155 -4.00894,0 l -10.58654,10.5197 c -2.14908,-0.77475 -4.2471,-1.66218 -6.23174,-2.74121 l 9.48936,-9.42941 c 1.10856,-1.10155 1.10856,-2.88206 0,-3.9836 -1.10857,-1.10155 -2.90038,-1.10155 -4.00896,0 l -10.35973,10.29711 c -1.72664,-1.24524 -3.37102,-2.5947 -4.90485,-4.06249 l 10.77084,-10.7 c 1.10855,-1.10158 1.10855,-2.88209 0,-3.98364 -1.10856,-1.10155 -2.90041,-1.10155 -4.00896,0 l -10.60073,10.5338 c -1.35522,-1.66502 -2.563,-3.44272 -3.67156,-5.28803 l 9.77571,-9.71397 c 1.10856,-1.10154 1.10856,-2.88206 0,-3.98361 -1.10855,-1.10155 -2.9004,-1.10155 -4.00894,0 l -8.50555,8.45181 c -0.94978,-2.2031 -1.68978,-4.51046 -2.28231,-6.87413 0.21547,-0.12109 0.4366,-0.2282 0.6209,-0.40851 l 14.1759,-14.08636 c 1.10856,-1.10155 1.10856,-2.88207 0,-3.98364 -1.10855,-1.10154 -2.9004,-1.10154 -4.00894,0 l -11.95597,11.87763 c -0.13897,-1.40583 -0.22113,-2.82009 -0.22113,-4.25689 l 0,-4.46819 16.18037,-16.07817 c 1.10856,-1.10155 1.10856,-2.88205 0,-3.98362 -1.10856,-1.10156 -2.9004,-1.10156 -4.00894,0 l -12.17143,12.09453 0,-8.93636 15.34964,-15.25271 75.37608,0 0,36.62452 c 0,22.30434 -16.40434,40.82507 -37.84396,44.40303 z m -45.54999,-81.02755 -7.33177,7.28545 0,-7.28545 7.33177,0 z m -13.00214,28.02903 c -14.47641,-1.42554 -28.35179,-13.4215 -28.35179,-25.21178 0,-11.97904 6.67684,-19.7209 17.01108,-19.7209 4.06564,0 11.34071,7.09953 11.34071,14.08637 l 0,30.84631 z M 353.00996,481.0212 c 0,-6.98684 7.27508,-14.08637 11.3407,-14.08637 10.33423,0 17.01108,7.74186 17.01108,19.7209 0,11.79028 -13.87536,23.78624 -28.35178,25.21178 l 0,-30.84631 z m 11.3407,-25.35545 c 13.70527,0 28.35181,8.14192 28.35181,30.98998 0,25.59774 -27.18086,35.20747 -39.82862,36.47241 0.0481,-0.89026 0.13617,-1.76643 0.13617,-2.66514 l 0,-2.96096 c 17.57526,-1.44525 34.02214,-16.00209 34.02214,-30.84631 0,-14.92872 -9.32774,-25.35544 -22.68142,-25.35544 -6.58045,0 -15.16253,7.9926 -16.73324,16.90363 l -5.75258,0 c 1.35521,-11.15638 10.51286,-22.53817 22.48582,-22.53817 z m -153.09968,30.98998 c 0,-22.84806 14.64653,-30.98998 28.3518,-30.98998 11.97298,0 21.13059,11.38179 22.48864,22.53817 l -5.75257,0 c -1.57354,-8.91103 -10.15562,-16.90363 -16.73607,-16.90363 -13.35369,0 -22.68142,10.42672 -22.68142,25.35544 0,14.84422 16.44686,29.40106 34.02213,30.84631 l 0,2.96096 c 0,0.89871 0.0879,1.77488 0.13616,2.66514 -12.64772,-1.26494 -39.82859,-10.87467 -39.82859,-36.47241 z m 138.92381,211.29539 -96.39613,0 0,-8.45181 5.67038,0 85.05537,0 5.67038,0 0,8.45181 z m -8.50555,-14.08637 -79.38504,0 0,-53.52816 79.38504,0 0,53.52816 z M 321.82299,619.0675 c 3.18106,0 6.48121,2.575 7.84493,5.63455 l -55.38239,0 c 1.36088,-3.05955 4.66387,-5.63455 7.84495,-5.63455 10.01384,0 17.01106,-6.9502 17.01106,-16.90362 l 0,-31.13367 c 0.94411,0.0534 1.87688,0.14366 2.8352,0.14366 0.95829,0 1.89104,-0.0902 2.83517,-0.14366 l 0,31.13367 c 0,9.95342 6.99722,16.90362 17.01108,16.90362 z"
       id="path3582"
       inkscape:connector-curvature="0" />
    <path
       inkscape:connector-curvature="0"
       d="m 339.22832,605.13895 -39.69253,0 c -1.56785,0 -2.83517,1.25932 -2.83517,2.81725 l 0,30.99001 c 0,1.55795 1.26732,2.81727 2.83517,2.81727 l 39.69253,0 c 1.56784,0 2.83518,-1.25932 2.83518,-2.81727 l 0,-30.99001 c 0,-1.55793 -1.26734,-2.81725 -2.83518,-2.81725 z m -30.01323,30.98997 25.51663,-25.35542 1.6614,0 0,7.28544 -18.18481,18.06998 -8.99322,0 z m -6.84412,-10.10273 15.34967,-15.25269 8.9932,0 -24.34287,24.18909 0,-8.9364 z m 7.33178,-15.25269 -7.33178,7.28544 0,-7.28544 7.33178,0 z m 16.52342,25.35542 10.16695,-10.10273 0,10.10273 -10.16695,0 z"
       id="path3584" />
    <ellipse
       cx="510.34607"
       cy="463.71719"
       id="circle3389"
       rx="23.519705"
       ry="21.478277" />
    <path
       d="m 584.74962,525.14071 -39.09533,-33.15218 c -2.44573,-2.07411 -5.56087,-2.58312 -8.80622,-2.50938 l -53.04566,-0.0737 c -3.35213,0 -6.34485,0.50903 -8.7906,2.58312 l -39.0927,33.15223 c -2.63066,2.15496 -3.86005,5.50157 -3.18806,8.67219 0.6798,3.23719 3.24015,5.89878 6.62094,7.01432 l 36.15471,11.62872 c 1.11998,0.3544 2.26082,0.52804 3.3834,0.52804 3.70898,0 7.2096,-1.86477 8.98854,-4.9355 -2.48741,14.29507 -5.84476,29.97922 -6.58708,42.5974 -1.48203,25.24829 -0.0156,102.7913 -0.0156,102.7913 0,6.64328 5.90987,12.0402 13.18457,12.0402 7.29033,0 13.18979,-5.40168 13.18979,-12.0402 l 0.0106,-101.01689 5.34729,0 0.0156,101.01689 c 0,6.64328 5.89945,12.0402 13.18719,12.0402 7.27471,0 13.18458,-5.40168 13.18458,-12.0402 0,0 1.4664,-77.54301 -0.0155,-102.7913 -0.74232,-12.62294 -4.09707,-28.30233 -6.5923,-42.5974 1.78938,3.07073 5.28218,4.9355 8.99114,4.9355 1.1252,0 2.26603,-0.17126 3.386,-0.52804 l 36.15731,-11.62872 c 3.37822,-1.11315 5.93855,-3.77474 6.61836,-7.01432 0.66677,-3.17062 -0.56521,-6.51723 -3.19067,-8.67219 z m -95.86039,16.80918 c -0.65635,-3.14681 -3.07083,-5.90117 -6.61834,-7.0405 l -20.25351,-6.51483 23.01702,-19.52311 c 7.06112,3.25385 6.423,16.74021 3.85483,33.07844 z m 49.50599,-7.04287 c -3.54488,1.13934 -5.96197,3.89369 -6.62355,7.0405 -2.56294,-16.33824 -3.20369,-29.8246 3.85485,-33.07845 l 23.02483,19.52311 -20.25613,6.51484 z"
       id="path3391"
       inkscape:connector-curvature="0" />
  </g>
</svg>
