<svg xmlns="http://www.w3.org/2000/svg" xmlns:xlink="http://www.w3.org/1999/xlink" version="1.1" x="0px" y="0px" viewBox="0 0 100 125" enable-background="new 0 0 100 100" xml:space="preserve"><path fill="#000000" d="M48,87c1.104,0,2-0.896,2-2V18.637l17.169,17.169c0.39,0.39,0.902,0.585,1.414,0.585  s1.024-0.195,1.414-0.585c0.781-0.781,0.781-2.047,0-2.829L49.685,12.665c-0.78-0.781-2.048-0.781-2.828,0L26.544,32.978  c-0.781,0.781-0.781,2.047,0,2.829c0.78,0.781,2.048,0.781,2.828,0L46,19.179V85C46,86.104,46.896,87,48,87z"/><text x="0" y="115" fill="#000000" font-size="5px" font-weight="bold" font-family="'Helvetica Neue', Helvetica, Arial-Unicode, Arial, Sans-serif">Created by Austin Condiff</text><text x="0" y="120" fill="#000000" font-size="5px" font-weight="bold" font-family="'Helvetica Neue', Helvetica, Arial-Unicode, Arial, Sans-serif">from the Noun Project</text></svg>