<?xml version="1.0" encoding="UTF-8" standalone="no"?>
<svg
   xmlns:dc="http://purl.org/dc/elements/1.1/"
   xmlns:cc="http://creativecommons.org/ns#"
   xmlns:rdf="http://www.w3.org/1999/02/22-rdf-syntax-ns#"
   xmlns:svg="http://www.w3.org/2000/svg"
   xmlns="http://www.w3.org/2000/svg"
   xmlns:sodipodi="http://sodipodi.sourceforge.net/DTD/sodipodi-0.dtd"
   xmlns:inkscape="http://www.inkscape.org/namespaces/inkscape"
   version="1.1"
   x="0px"
   y="0px"
   viewBox="0 0 66.218 146.06875"
   enable-background="new 0 0 66.218 116.855"
   xml:space="preserve"
   id="svg3387"
   inkscape:version="0.91 r13725"
   sodipodi:docname="noun_637325_cc.svg"><metadata
     id="metadata3401"><rdf:RDF><cc:Work
         rdf:about=""><dc:format>image/svg+xml</dc:format><dc:type
           rdf:resource="http://purl.org/dc/dcmitype/StillImage" /></cc:Work></rdf:RDF></metadata><defs
     id="defs3399" /><sodipodi:namedview
     pagecolor="#ffffff"
     bordercolor="#666666"
     borderopacity="1"
     objecttolerance="10"
     gridtolerance="10"
     guidetolerance="10"
     inkscape:pageopacity="0"
     inkscape:pageshadow="2"
     inkscape:window-width="1301"
     inkscape:window-height="744"
     id="namedview3397"
     showgrid="false"
     inkscape:zoom="4.1555773"
     inkscape:cx="33.109001"
     inkscape:cy="73.034378"
     inkscape:window-x="65"
     inkscape:window-y="24"
     inkscape:window-maximized="1"
     inkscape:current-layer="svg3387" /><circle
     cx="32.740002"
     cy="26.992348"
     r="9.0299997"
     id="circle3389" /><path
     d="m 61.306,52.816349 -15.01,-13.938 c -0.939,-0.872 -2.135,-1.086 -3.381,-1.055 l -20.366,-0.031 c -1.287,0 -2.436,0.214 -3.375,1.086 l -15.009,13.938 c -1.01,0.906 -1.482,2.313 -1.224,3.646 0.261,1.361 1.244,2.48 2.542,2.949 l 13.881,4.889 c 0.43,0.149 0.868,0.222 1.299,0.222 1.424,0 2.768,-0.784 3.451,-2.075 -0.955,6.01 -2.244,12.604 -2.529,17.909 -0.569,10.615 -0.006,43.216001 -0.006,43.216001 0,2.793 2.269,5.062 5.062,5.062 2.799,0 5.064,-2.271 5.064,-5.062 l 0.004,-42.470001 2.053,0 0.006,42.470001 c 0,2.793 2.265,5.062 5.063,5.062 2.793,0 5.062,-2.271 5.062,-5.062 0,0 0.563,-32.601001 -0.006,-43.216001 -0.285,-5.307 -1.573,-11.899 -2.531,-17.909 0.687,1.291 2.028,2.075 3.452,2.075 0.432,0 0.87,-0.072 1.3,-0.222 l 13.882,-4.889 c 1.297,-0.468 2.28,-1.587 2.541,-2.949 0.256,-1.333 -0.217,-2.74 -1.225,-3.646 z m -36.804,7.067 c -0.252,-1.323 -1.179,-2.481 -2.541,-2.96 l -7.776,-2.739 8.837,-8.208 c 2.711,1.368 2.466,7.038 1.48,13.907 z m 19.007,-2.961 c -1.361,0.479 -2.289,1.637 -2.543,2.96 -0.984,-6.869 -1.23,-12.539 1.48,-13.907 l 8.84,8.208 -7.777,2.739 z"
     id="path3391"
     inkscape:connector-curvature="0" /></svg>