<?xml version="1.0" encoding="UTF-8" standalone="no"?>
<svg
   xmlns:dc="http://purl.org/dc/elements/1.1/"
   xmlns:cc="http://creativecommons.org/ns#"
   xmlns:rdf="http://www.w3.org/1999/02/22-rdf-syntax-ns#"
   xmlns:svg="http://www.w3.org/2000/svg"
   xmlns="http://www.w3.org/2000/svg"
   xmlns:sodipodi="http://sodipodi.sourceforge.net/DTD/sodipodi-0.dtd"
   xmlns:inkscape="http://www.inkscape.org/namespaces/inkscape"
   version="1.1"
   x="0px"
   y="0px"
   viewBox="0 0 100 125"
   style="enable-background:new 0 0 100 100;"
   xml:space="preserve"
   id="svg3580"
   inkscape:version="0.91 r13725"
   sodipodi:docname="noun_189608_cc.svg"><metadata
     id="metadata3594"><rdf:RDF><cc:Work
         rdf:about=""><dc:format>image/svg+xml</dc:format><dc:type
           rdf:resource="http://purl.org/dc/dcmitype/StillImage" /></cc:Work></rdf:RDF></metadata><defs
     id="defs3592" /><sodipodi:namedview
     pagecolor="#ffffff"
     bordercolor="#666666"
     borderopacity="1"
     objecttolerance="10"
     gridtolerance="10"
     guidetolerance="10"
     inkscape:pageopacity="0"
     inkscape:pageshadow="2"
     inkscape:window-width="1301"
     inkscape:window-height="744"
     id="namedview3590"
     showgrid="false"
     inkscape:zoom="4.856"
     inkscape:cx="50"
     inkscape:cy="62.5"
     inkscape:window-x="65"
     inkscape:window-y="24"
     inkscape:window-maximized="1"
     inkscape:current-layer="svg3580" /><path
     d="m 67.937931,44.918987 c 5.914,-0.358 16.268,-4.932 16.268,-14.975 0,-7.897 -4.71,-13 -12,-13 -5.021,0 -9.458,4.568 -9.95,10 l -24.1,0 c -0.492,-5.432 -4.929,-10 -9.95,-10 -7.29,0 -12,5.103 -12,13 0,10.043 10.354,14.617 16.268,14.975 0.319,1.909 0.929,3.718 1.801,5.375 0.009,0.024 0.021,0.045 0.033,0.069 2.576,4.846 7.303,8.366 12.898,9.311 l 0,11.27 c 0,2.43 -1.57,4 -4,4 -2.232,0 -4.357,1.834 -4.877,4 l -3.123,0 c -0.553,0 -1,0.447 -1,1 l 0,20 -2,0 c -0.553,0 -1,0.447003 -1,1.000003 l 0,5 c 0,0.553 0.447,1 1,1 l 36,0 c 0.553,0 1,-0.447 1,-1 l 0,-5 c 0,-0.553 -0.447,-1.000003 -1,-1.000003 l -2,0 0,-20 c 0,-0.553 -0.447,-1 -1,-1 l -3.123,0 c -0.52,-2.166 -2.645,-4 -4.877,-4 -2.43,0 -4,-1.57 -4,-4 l 0,-11.271 c 7.529,-1.271 13.472,-7.221 14.732,-14.754 z m -15.08,12.786 2.055,-2.054 c 0.391,-0.391 0.391,-1.023 0,-1.414 -0.391,-0.391 -1.023,-0.391 -1.414,0 l -3.688,3.687 c -0.975,-0.024 -1.933,-0.122 -2.857,-0.314 l 2.959,-2.959 c 0.391,-0.391 0.391,-1.023 0,-1.414 -0.391,-0.391 -1.023,-0.391 -1.414,0 l -3.734,3.734 c -0.758,-0.275 -1.498,-0.59 -2.198,-0.973 l 3.347,-3.347 c 0.391,-0.391 0.391,-1.023 0,-1.414 -0.391,-0.391 -1.023,-0.391 -1.414,0 l -3.654,3.655 c -0.609,-0.442 -1.189,-0.921 -1.73,-1.442 l 3.799,-3.798 c 0.391,-0.391 0.391,-1.023 0,-1.414 -0.391,-0.391 -1.023,-0.391 -1.414,0 l -3.739,3.739 c -0.478,-0.591 -0.904,-1.222 -1.295,-1.877 l 3.448,-3.448 c 0.391,-0.391 0.391,-1.023 0,-1.414 -0.391,-0.391 -1.023,-0.391 -1.414,0 l -3,3 c -0.335,-0.782 -0.596,-1.601 -0.805,-2.44 0.076,-0.043 0.154,-0.081 0.219,-0.145 l 5,-5 c 0.391,-0.391 0.391,-1.023 0,-1.414 -0.391,-0.391 -1.023,-0.391 -1.414,0 l -4.217,4.216 c -0.049,-0.499 -0.078,-1.001 -0.078,-1.511 l 0,-1.586 5.707,-5.707 c 0.391,-0.391 0.391,-1.023 0,-1.414 -0.391,-0.391 -1.023,-0.391 -1.414,0 l -4.293,4.293 0,-3.172 5.414,-5.414 26.586,0 0,13 c 0,7.917 -5.786,14.491 -13.348,15.761 z m -16.066,-28.761 -2.586,2.586 0,-2.586 2.586,0 z m -4.586,9.949 c -5.106,-0.506 -10,-4.764 -10,-8.949 0,-4.252 2.355,-7 6,-7 1.434,0 4,2.52 4,5 l 0,10.949 z m 36,-10.949 c 0,-2.48 2.566,-5 4,-5 3.645,0 6,2.748 6,7 0,4.185 -4.894,8.443 -10,8.949 l 0,-10.949 z m 4,-9 c 4.834,0 10,2.89 10,11 0,9.086 -9.587,12.497 -14.048,12.946 0.017,-0.316 0.048,-0.627 0.048,-0.946 l 0,-1.051 c 6.199,-0.513 12,-5.68 12,-10.949 0,-5.299 -3.29,-9 -8,-9 -2.321,0 -5.348,2.837 -5.902,6 l -2.029,0 c 0.478,-3.96 3.708,-8 7.931,-8 z m -54,11 c 0,-8.11 5.166,-11 10,-11 4.223,0 7.453,4.04 7.932,8 l -2.029,0 c -0.555,-3.163 -3.582,-6 -5.903,-6 -4.71,0 -8,3.701 -8,9 0,5.269 5.801,10.436 12,10.949 l 0,1.051 c 0,0.319 0.031,0.63 0.048,0.946 -4.461,-0.449 -14.048,-3.86 -14.048,-12.946 z m 49,75.000003 -34,0 0,-3 2,0 30,0 2,0 0,3 z m -3,-5.000003 -28,0 0,-19 28,0 0,19 z m -7,-23 c 1.122,0 2.286,0.914 2.767,2 l -19.534,0 c 0.48,-1.086 1.645,-2 2.767,-2 3.532,0 6,-2.467 6,-6 l 0,-11.051 c 0.333,0.019 0.662,0.051 1,0.051 0.338,0 0.667,-0.032 1,-0.051 l 0,11.051 c 0,3.533 2.468,6 6,6 z"
     id="path3582"
     inkscape:connector-curvature="0" /><path
     d="M57,72H43c-0.553,0-1,0.447-1,1v11c0,0.553,0.447,1,1,1h14c0.553,0,1-0.447,1-1V73C58,72.447,57.553,72,57,72z M46.414,83  l9-9H56v2.586L49.586,83H46.414z M44,79.414L49.414,74h3.172L44,82.586V79.414z M46.586,74L44,76.586V74H46.586z M52.414,83  L56,79.414V83H52.414z"
     id="path3584" /></svg>