<?xml version="1.0" encoding="UTF-8" standalone="no"?>
<svg
   xmlns:dc="http://purl.org/dc/elements/1.1/"
   xmlns:cc="http://creativecommons.org/ns#"
   xmlns:rdf="http://www.w3.org/1999/02/22-rdf-syntax-ns#"
   xmlns:svg="http://www.w3.org/2000/svg"
   xmlns="http://www.w3.org/2000/svg"
   xmlns:sodipodi="http://sodipodi.sourceforge.net/DTD/sodipodi-0.dtd"
   xmlns:inkscape="http://www.inkscape.org/namespaces/inkscape"
   version="1.1"
   x="0px"
   y="0px"
   viewBox="0 0 107.218 275.98125"
   style="enable-background:new 0 0 107.218 220.785;"
   xml:space="preserve"
   id="svg3389"
   inkscape:version="0.91 r13725"
   sodipodi:docname="noun_687035_cc.svg"><metadata
     id="metadata3405"><rdf:RDF><cc:Work
         rdf:about=""><dc:format>image/svg+xml</dc:format><dc:type
           rdf:resource="http://purl.org/dc/dcmitype/StillImage" /></cc:Work></rdf:RDF></metadata><defs
     id="defs3403" /><sodipodi:namedview
     pagecolor="#ffffff"
     bordercolor="#666666"
     borderopacity="1"
     objecttolerance="10"
     gridtolerance="10"
     guidetolerance="10"
     inkscape:pageopacity="0"
     inkscape:pageshadow="2"
     inkscape:window-width="1301"
     inkscape:window-height="744"
     id="namedview3401"
     showgrid="false"
     inkscape:zoom="2.1994247"
     inkscape:cx="53.609001"
     inkscape:cy="137.99063"
     inkscape:window-x="65"
     inkscape:window-y="24"
     inkscape:window-maximized="1"
     inkscape:current-layer="svg3389" /><g
     id="g3391"
     transform="translate(0.45466436,23.642547)"><path
       d="m 19.053,98.431 c 0.018,-0.101 0.035,-0.198 0.053,-0.298 -2.707,-3.105 -4.357,-7.154 -4.357,-11.597 0,-1.977 0.339,-3.873 0.938,-5.648 -0.06,0.601 -0.092,1.209 -0.092,1.826 0,10.15 8.227,18.377 18.377,18.377 5.855,0 11.059,-2.748 14.424,-7.013 -2.833,5.984 -8.909,10.134 -15.969,10.134 -4.544,0 -8.674,-1.729 -11.805,-4.545 -3.651,6.089 -5.763,13.261 -5.763,20.943 0,7.638 2.085,13.612 5.697,18.161 l 8.032,72.739 c 0,5.123 5.131,9.275 11.459,9.275 6.328,0 11.461,-4.152 11.461,-9.275 l 0,-60.678 c 0.695,0.018 1.396,0.028 2.102,0.028 0.703,0 1.404,-0.01 2.1,-0.028 l 0,60.678 c 0,5.123 5.133,9.275 11.461,9.275 6.328,0 11.461,-4.152 11.461,-9.275 l 8.031,-72.74 c 3.611,-4.549 5.697,-10.523 5.697,-18.16 0,-7.793 -2.177,-15.059 -5.926,-21.204 -3.162,2.973 -7.408,4.807 -12.092,4.807 -7.06,0 -13.137,-4.149 -15.97,-10.134 3.365,4.266 8.569,7.013 14.425,7.013 10.148,0 18.377,-8.228 18.377,-18.377 0,-0.617 -0.033,-1.226 -0.093,-1.826 0.6,1.775 0.938,3.671 0.938,5.648 0,4.239 -1.495,8.127 -3.983,11.172 0.042,0.24 0.085,0.476 0.127,0.72 3.92,6.438 6.196,14.04 6.196,22.182 0,5.263 -0.973,9.947 -2.856,14.025 0.923,3.417 4.037,5.91 7.711,5.911 0.073,0 0.146,-0.001 0.22,-0.003 4.418,-0.119 7.9,-3.796 7.781,-8.212 -1.082,-38.447 -7.36,-58.916 -14.827,-70.688 -3.734,-5.855 -7.9,-9.46 -11.643,-11.452 -3.737,-2.01 -6.911,-2.351 -8.409,-2.343 -0.266,0 -0.493,0.01 -0.678,0.025 -0.179,0.013 -0.353,0.041 -0.528,0.065 -0.106,-0.005 -0.212,-0.016 -0.319,-0.016 l -17.201,0 -17.204,0 c -0.105,0 -0.209,0.011 -0.313,0.016 -0.18,-0.025 -0.359,-0.053 -0.543,-0.066 -0.182,-0.012 -0.407,-0.022 -0.67,-0.022 -1.5,-0.008 -4.673,0.332 -8.411,2.34 -5.663,3.011 -12.057,9.557 -16.96,22.056 -4.941,12.545 -8.714,31.233 -9.506,60.084 -0.12,4.417 3.362,8.095 7.781,8.215 0.072,0.002 0.146,0.003 0.218,0.003 3.674,0 6.789,-2.494 7.713,-5.912 -1.884,-4.079 -2.858,-8.764 -2.858,-14.026 0.001,-8.142 2.276,-15.742 6.196,-22.18 z"
       id="path3393"
       inkscape:connector-curvature="0" /><circle
       cx="53.609001"
       cy="20.856001"
       r="20.856001"
       id="circle3395" /></g></svg>