<?xml version="1.0" encoding="UTF-8" standalone="no"?>
<svg
   xmlns:dc="http://purl.org/dc/elements/1.1/"
   xmlns:cc="http://creativecommons.org/ns#"
   xmlns:rdf="http://www.w3.org/1999/02/22-rdf-syntax-ns#"
   xmlns:svg="http://www.w3.org/2000/svg"
   xmlns="http://www.w3.org/2000/svg"
   xmlns:sodipodi="http://sodipodi.sourceforge.net/DTD/sodipodi-0.dtd"
   xmlns:inkscape="http://www.inkscape.org/namespaces/inkscape"
   version="1.1"
   x="0px"
   y="0px"
   viewBox="0 0 100 125"
   enable-background="new 0 0 100 100"
   xml:space="preserve"
   id="svg3408"
   inkscape:version="0.91 r13725"
   sodipodi:docname="noun_755926_cc.svg"><metadata
     id="metadata3430"><rdf:RDF><cc:Work
         rdf:about=""><dc:format>image/svg+xml</dc:format><dc:type
           rdf:resource="http://purl.org/dc/dcmitype/StillImage" /></cc:Work></rdf:RDF></metadata><defs
     id="defs3428" /><sodipodi:namedview
     pagecolor="#ffffff"
     bordercolor="#666666"
     borderopacity="1"
     objecttolerance="10"
     gridtolerance="10"
     guidetolerance="10"
     inkscape:pageopacity="0"
     inkscape:pageshadow="2"
     inkscape:window-width="1301"
     inkscape:window-height="744"
     id="namedview3426"
     showgrid="false"
     inkscape:zoom="4.856"
     inkscape:cx="50"
     inkscape:cy="62.5"
     inkscape:window-x="65"
     inkscape:window-y="24"
     inkscape:window-maximized="1"
     inkscape:current-layer="svg3408" /><path
     d="m 50.033069,108.98723 c -10.277,0 -24.438,-1.333 -31.965,-2.128 -3.391,-0.357 -6.116,-3.08 -6.481,-6.474 -0.899,-8.368004 -2.4869998,-24.218004 -3.0219998,-36.354004 -0.49,-11.092 -0.287,-27.262 -0.123,-35.914 0.07,-3.651 2.8579998,-6.707 6.4849998,-7.108 6.826,-0.755 20.465,-2.022 35.105,-2.022 15.079,0 28.475,1.256 35.117,2.005 3.619,0.408 6.399,3.464 6.469,7.108 0.18,9.604 0.404,27.043 -0.117,35.946 -0.444,7.582 -2.129,25.961 -3.094,36.242004 l 0,0 c -0.324,3.45 -3.059,6.215 -6.502,6.573 -7.624,0.794 -21.904,2.126 -31.872,2.126 z m 0,-88.000004 c -14.545,0 -28.1,1.259 -34.885,2.01 -2.633,0.291 -4.655,2.508 -4.706,5.158 -0.164,8.628 -0.367,24.75 0.12,35.788 0.533,12.082 2.116,27.884 3.013,36.229004 0.27,2.503 2.203,4.435 4.703,4.699 7.488,0.79 21.569,2.116 31.755,2.116 9.878,0 24.079,-1.325 31.666,-2.115 2.499,-0.261 4.482,-2.267 4.717,-4.771 l 0,0 c 0.964,-10.268004 2.647,-28.620004 3.09,-36.172004 0.518,-8.835 0.293,-26.217 0.113,-35.791 -0.05,-2.645 -2.067,-4.862 -4.693,-5.158 -6.601,-0.745 -19.911,-1.993 -34.893,-1.993 z"
     id="path3410"
     inkscape:connector-curvature="0" /><path
     d="m 72.511069,102.61023 c -0.511,0 -0.946,-0.39 -0.995,-0.908 -0.051,-0.55 0.354,-1.036 0.904,-1.088 2.125,-0.196 4.045,-0.39 5.63,-0.555 2.157,-0.225004 3.87,-1.957004 4.072,-4.119004 0.181,-1.918 0.404,-4.322 0.647,-6.968 0.052,-0.549 0.532,-0.949 1.088,-0.904 0.55,0.051 0.954,0.538 0.904,1.088 -0.243,2.647 -0.467,5.052 -0.648,6.972 -0.291,3.107 -2.754,5.598004 -5.856,5.921004 -1.591,0.166 -3.519,0.359 -5.653,0.558 -0.032,0.002 -0.063,0.003 -0.093,0.003 z"
     id="path3412"
     inkscape:connector-curvature="0" /><path
     d="m 85.956069,33.241226 c -0.544,0 -0.989,-0.436 -1,-0.981 -0.042,-2.283 -1.784,-4.198 -4.052,-4.454 -0.549,-0.062 -0.943,-0.557 -0.882,-1.105 0.061,-0.548 0.545,-0.952 1.106,-0.882 3.261,0.368 5.767,3.121 5.827,6.404 0.01,0.552 -0.43,1.008 -0.981,1.019 -0.005,-0.001 -0.012,-0.001 -0.018,-0.001 z"
     id="path3414"
     inkscape:connector-curvature="0" /><path
     d="m 14.107069,33.256226 c -0.006,0 -0.013,0 -0.02,0 -0.552,-0.011 -0.991,-0.467 -0.98,-1.019 0.063,-3.289 2.575,-6.042 5.842,-6.404 0.565,-0.054 1.044,0.336 1.104,0.884 0.061,0.549 -0.335,1.043 -0.884,1.104 -2.272,0.251 -4.019,2.166 -4.063,4.454 -0.009,0.546 -0.455,0.981 -0.999,0.981 z"
     id="path3416"
     inkscape:connector-curvature="0" /><path
     d="m 26.841069,102.55523 c -0.031,0 -0.063,-10e-4 -0.096,-0.005 -1.886,-0.179 -3.589,-0.352 -5.014,-0.502 -3.056,-0.323 -5.512,-2.776004 -5.84,-5.833004 -0.205,-1.907 -0.459,-4.325 -0.729,-7.052 -0.055,-0.55 0.347,-1.039 0.896,-1.094 0.553,-0.048 1.04,0.349 1.094,0.896 0.27,2.721 0.521,5.133 0.727,7.035 0.232,2.161 1.902,3.83 4.062,4.059004 1.418,0.148 3.115,0.321 4.993,0.5 0.55,0.052 0.953,0.54 0.9,1.09 -0.048,0.518 -0.483,0.906 -0.993,0.906 z"
     id="path3418"
     inkscape:connector-curvature="0" /><path
     d="m 71.875069,36.203226 c -0.069,-0.576 -0.379,-1.1 -0.849,-1.439 l -5.774,-4.168 c -9.398,-6.783 -22.028,-6.783 -31.425,0 l -5.775,4.168 c -0.47,0.338 -0.779,0.863 -0.849,1.438 -0.069,0.576 0.106,1.16 0.483,1.602 l 13.285,15.583 c 0.013,0.015 0.025,0.03 0.038,0.045 l 0.845,0.991 c 1.922,2.254 4.723,3.546 7.685,3.546 2.962,0 5.763,-1.292 7.685,-3.546 l 14.169,-16.619 c 0.377,-0.442 0.552,-1.025 0.482,-1.601 z m -16.173,16.922 c -1.541,1.808 -3.788,2.844 -6.163,2.844 -2.375,0 -4.622,-1.037 -6.163,-2.844 l -0.604,-0.708 c 0.394,-3.905 3.191,-6.504 7.077,-6.504 3.75,0 6.379,2.253 6.982,5.888 l -1.129,1.324 z m 2.738,-3.211 c -1.037,-3.154 -3.503,-5.289 -6.798,-5.852 l -2.103,-12.853 -1.468,12.862 c -3.431,0.615 -6.019,3.013 -6.96,6.397 l -11.903,-13.962 -0.761,0.649 0.774,-0.769 5.775,-4.168 c 8.698,-6.278 20.387,-6.279 29.085,0 l 5.774,4.168 0.015,0.12 -11.43,13.408 z"
     id="path3420"
     inkscape:connector-curvature="0" /></svg>